<svg xmlns="http://www.w3.org/2000/svg" viewBox="0 0 1620 900" font-family="-apple-system,BlinkMacSystemFont,'Segoe UI',Helvetica,Arial,sans-serif" role="img" aria-label="Two Terraform roots, one facts document">
<title>Two Terraform roots, one facts document</title>
<defs>
<pattern id="grid" width="34" height="34" patternUnits="userSpaceOnUse"><path d="M34 0 H0 V34" fill="none" stroke="#EAEFF6" stroke-width="1"/></pattern>
<marker id="ah" viewBox="0 0 10 10" refX="8" refY="5" markerWidth="7" markerHeight="7" orient="auto-start-reverse"><path d="M1 1 L9 5 L1 9" fill="none" stroke="context-stroke" stroke-width="1.7" stroke-linecap="round" stroke-linejoin="round"/></marker>
<style>@media (prefers-reduced-motion: no-preference){.flow{stroke-dasharray:6 6;animation:dm .8s linear infinite}}@keyframes dm{to{stroke-dashoffset:-12}}</style>
</defs>
<rect width="1620" height="900" fill="#FBFCFE"/><rect width="1620" height="900" fill="url(#grid)"/>
<text x="40" y="46" font-size="21" font-weight="800" fill="#16202E">Two Terraform roots, one facts document</text>
<text x="40" y="68" font-size="12" fill="#5A6B7B">The foundation and the workloads live in different repositories and states · everything they share crosses through AWS, never through git</text>
<rect x="50" y="110" width="530" height="630" rx="12" fill="rgba(0,164,166,0.045)" stroke="#00A4A6" stroke-width="1.5" stroke-dasharray="9 5"/>
<text x="68" y="128" font-size="11" font-weight="700" fill="#0B7E7F">Operations repository · foundation root</text>
<rect x="605" y="110" width="410" height="630" rx="12" fill="rgba(0,164,166,0.045)" stroke="#00A4A6" stroke-width="1.5" stroke-dasharray="9 5"/>
<text x="623" y="128" font-size="11" font-weight="700" fill="#0B7E7F">AWS account · the only shared surface</text>
<rect x="1050" y="110" width="520" height="630" rx="12" fill="rgba(0,164,166,0.045)" stroke="#00A4A6" stroke-width="1.5" stroke-dasharray="9 5"/>
<text x="1068" y="128" font-size="11" font-weight="700" fill="#0B7E7F">Application repository · workloads root</text>
<path class="flow" d="M 273.0 170.0 L 787.0 170.0" fill="none" stroke="#1D4ED8" stroke-width="2" marker-end="url(#ah)"/>
<path class="flow" d="M 833.0 170.0 L 1327.0 170.0" fill="none" stroke="#0F766E" stroke-width="2" marker-end="url(#ah)"/>
<path class="flow" d="M 810.0 193.0 L 810.0 250.0 L 1350.0 250.0 L 1350.0 277.0" fill="none" stroke="#0F766E" stroke-width="2" marker-end="url(#ah)"/>
<path class="flow" d="M 1327.0 420.0 L 923.0 420.0" fill="none" stroke="#1D4ED8" stroke-width="2" marker-end="url(#ah)"/>
<path class="flow" d="M 1350.0 443.0 L 1350.0 490.0 L 720.0 490.0 L 720.0 443.0" fill="none" stroke="#1D4ED8" stroke-width="2" marker-end="url(#ah)"/>
<path class="flow" d="M 720.0 397.0 L 720.0 300.0 L 1327.0 300.0" fill="none" stroke="#0F766E" stroke-width="2" marker-end="url(#ah)"/>
<path d="M 787.0 540.0 L 250.0 540.0 L 250.0 193.0" fill="none" stroke="#94A3B8" stroke-width="1.4" stroke-dasharray="2 5" opacity="0.7"/>
<path d="M 250.0 193.0 L 250.0 612.0 L 810.0 612.0 L 810.0 637.0" fill="none" stroke="#94A3B8" stroke-width="1.4" stroke-dasharray="2 5" opacity="0.7"/>
<path d="M 463.0 660.0 L 787.0 660.0" fill="none" stroke="#94A3B8" stroke-width="1.4" stroke-dasharray="2 5" opacity="0.7"/>
<path d="M 1373.0 300.0 L 1500.0 300.0 L 1500.0 660.0 L 833.0 660.0" fill="none" stroke="#94A3B8" stroke-width="1.4" stroke-dasharray="2 5" opacity="0.7"/>
<rect x="404" y="148" width="272" height="14" rx="3" fill="#FBFCFE" opacity="0.92"/>
<text x="540" y="158" text-anchor="middle" font-size="9.5" fill="#48586a">publishes · names, ids, ARNs, no secrets</text>
<rect x="970" y="148" width="219" height="14" rx="3" fill="#FBFCFE" opacity="0.92"/>
<text x="1080" y="158" text-anchor="middle" font-size="9.5" fill="#48586a">env from facts · exit if missing</text>
<rect x="960" y="230" width="239" height="14" rx="3" fill="#FBFCFE" opacity="0.92"/>
<text x="1080" y="240" text-anchor="middle" font-size="9.5" fill="#48586a">reads · refuses another environment</text>
<rect x="1067" y="398" width="127" height="14" rx="3" fill="#FBFCFE" opacity="0.92"/>
<text x="1130" y="408" text-anchor="middle" font-size="9.5" fill="#48586a">pushes build image</text>
<rect x="1090" y="470" width="81" height="14" rx="3" fill="#FBFCFE" opacity="0.92"/>
<text x="1130" y="480" text-anchor="middle" font-size="9.5" fill="#48586a">writes tags</text>
<rect x="990" y="278" width="219" height="14" rx="3" fill="#FBFCFE" opacity="0.92"/>
<text x="1100" y="288" text-anchor="middle" font-size="9.5" fill="#48586a">image tags · never a tfvars edit</text>
<rect x="434" y="520" width="173" height="14" rx="3" fill="#FBFCFE" opacity="0.92"/>
<text x="520" y="530" text-anchor="middle" font-size="9.5" fill="#48586a">materialised in CodeBuild</text>
<rect x="1090" y="638" width="180" height="14" rx="3" fill="#FBFCFE" opacity="0.92"/>
<text x="1180" y="648" text-anchor="middle" font-size="9.5" fill="#48586a">tfstate · one key per root</text>
<circle r="4" fill="#1D4ED8"><animateMotion dur="2.2s" begin="0.00s" repeatCount="indefinite" path="M 273.0 170.0 L 787.0 170.0"/></circle>
<circle r="4" fill="#0F766E"><animateMotion dur="2.6s" begin="0.00s" repeatCount="indefinite" path="M 810.0 193.0 L 810.0 250.0 L 1350.0 250.0 L 1350.0 277.0"/></circle>
<circle r="4" fill="#0F766E"><animateMotion dur="2.0s" begin="0.00s" repeatCount="indefinite" path="M 833.0 170.0 L 1327.0 170.0"/></circle>
<circle r="4" fill="#1D4ED8"><animateMotion dur="2.8s" begin="0.00s" repeatCount="indefinite" path="M 1327.0 420.0 L 923.0 420.0"/></circle>
<circle r="4" fill="#1D4ED8"><animateMotion dur="3.0s" begin="0.00s" repeatCount="indefinite" path="M 1350.0 443.0 L 1350.0 490.0 L 720.0 490.0 L 720.0 443.0"/></circle>
<circle r="4" fill="#1D4ED8"><animateMotion dur="3.0s" begin="1.50s" repeatCount="indefinite" path="M 720.0 397.0 L 720.0 300.0 L 1327.0 300.0"/></circle>
<g transform="translate(227.00,147.00) scale(0.5750)">

    
    
    
    <defs>
        <linearGradient x1="0%" y1="100%" x2="100%" y2="0%" id="cloudformation__linearGradient-1">
            <stop stop-color="#B0084D" offset="0%"></stop>
            <stop stop-color="#FF4F8B" offset="100%"></stop>
        </linearGradient>
    </defs>
    <g id="cloudformation__Icon-Architecture/64/Arch_AWS-CloudFormation_64" stroke="none" stroke-width="1" fill="none" fill-rule="evenodd">
        <g id="cloudformation__Icon-Architecture-BG/64/Management-Governance" fill="url(#cloudformation__linearGradient-1)">
            <rect id="cloudformation__Rectangle" x="0" y="0" width="80" height="80"></rect>
        </g>
        <path d="M53,39.9632039 L58,39.9632039 L58,37.9601375 L53,37.9601375 L53,39.9632039 Z M28,51.9816019 L33,51.9816019 L33,49.9785356 L28,49.9785356 L28,51.9816019 Z M18,51.9816019 L25,51.9816019 L25,49.9785356 L18,49.9785356 L18,51.9816019 Z M18,45.9724029 L30,45.9724029 L30,43.9693366 L18,43.9693366 L18,45.9724029 Z M18,33.9540048 L27,33.9540048 L27,31.9509385 L18,31.9509385 L18,33.9540048 Z M18,39.9632039 L51,39.9632039 L51,37.9601375 L18,37.9601375 L18,39.9632039 Z M37,61.9969337 L14,61.9969337 L14,27.9448058 L37,27.9448058 L37,35.9570712 L39,35.9570712 L39,26.9432726 C39,26.3904263 38.552,25.9417395 38,25.9417395 L13,25.9417395 C12.447,25.9417395 12,26.3904263 12,26.9432726 L12,62.9984668 C12,63.5513131 12.447,64 13,64 L38,64 C38.552,64 39,63.5513131 39,62.9984668 L39,42.9678034 L37,42.9678034 L37,61.9969337 Z M68,36.9586044 C68,43.4305117 62.173,45.6819583 59.092,45.9683968 L43,45.9724029 L43,43.9693366 L59,43.9693366 C59.195,43.9463013 66,43.2121775 66,36.9586044 C66,31.2638867 60.863,30.1081175 59.834,29.9338507 C59.321,29.8467173 58.96,29.3820059 59.004,28.8632117 C59.005,28.8441826 59.007,28.826155 59.009,28.8081274 C58.954,25.5902013 56.981,24.584662 56.126,24.3002266 C54.53,23.769414 52.751,24.2771913 51.81,25.5391231 C51.591,25.8355769 51.229,25.9868085 50.861,25.9307226 C50.497,25.8756383 50.192,25.625255 50.068,25.2767214 C49.447,23.5360568 48.546,22.4083304 47.293,21.1534094 C44.159,18.0386412 39.905,17.1783242 35.925,18.8528877 C33.837,19.7332353 32.012,21.7282894 30.922,24.327268 L29.078,23.5500782 C30.37,20.4743699 32.584,18.0887179 35.15,17.007062 C39.905,15.0049972 44.971,16.0255595 48.704,19.7342369 C49.774,20.8068789 50.66,21.851478 51.35,23.2035478 C52.843,22.0978551 54.857,21.7673492 56.757,22.3993166 C59.189,23.2085554 60.727,25.3207889 60.975,28.1290879 C64.381,28.9884034 68,31.7115721 68,36.9586044 L68,36.9586044 Z" id="cloudformation__AWS-CloudFormation_Icon_64_Squid" fill="#FFFFFF"></path>
    </g>
</g><text x="250" y="208" text-anchor="middle" font-size="13" font-weight="700" fill="#16202E">Foundation root</text><text x="250" y="221" text-anchor="middle" font-size="9.5" fill="#5A6B7B">terraform/ · network, EKS, IAM, edges, data stores</text>
<g transform="translate(417.00,637.00) scale(0.5750)">

    
    
    
    <defs>
        <linearGradient x1="0%" y1="100%" x2="100%" y2="0%" id="cloudformation__linearGradient-1">
            <stop stop-color="#B0084D" offset="0%"></stop>
            <stop stop-color="#FF4F8B" offset="100%"></stop>
        </linearGradient>
    </defs>
    <g id="cloudformation__Icon-Architecture/64/Arch_AWS-CloudFormation_64" stroke="none" stroke-width="1" fill="none" fill-rule="evenodd">
        <g id="cloudformation__Icon-Architecture-BG/64/Management-Governance" fill="url(#cloudformation__linearGradient-1)">
            <rect id="cloudformation__Rectangle" x="0" y="0" width="80" height="80"></rect>
        </g>
        <path d="M53,39.9632039 L58,39.9632039 L58,37.9601375 L53,37.9601375 L53,39.9632039 Z M28,51.9816019 L33,51.9816019 L33,49.9785356 L28,49.9785356 L28,51.9816019 Z M18,51.9816019 L25,51.9816019 L25,49.9785356 L18,49.9785356 L18,51.9816019 Z M18,45.9724029 L30,45.9724029 L30,43.9693366 L18,43.9693366 L18,45.9724029 Z M18,33.9540048 L27,33.9540048 L27,31.9509385 L18,31.9509385 L18,33.9540048 Z M18,39.9632039 L51,39.9632039 L51,37.9601375 L18,37.9601375 L18,39.9632039 Z M37,61.9969337 L14,61.9969337 L14,27.9448058 L37,27.9448058 L37,35.9570712 L39,35.9570712 L39,26.9432726 C39,26.3904263 38.552,25.9417395 38,25.9417395 L13,25.9417395 C12.447,25.9417395 12,26.3904263 12,26.9432726 L12,62.9984668 C12,63.5513131 12.447,64 13,64 L38,64 C38.552,64 39,63.5513131 39,62.9984668 L39,42.9678034 L37,42.9678034 L37,61.9969337 Z M68,36.9586044 C68,43.4305117 62.173,45.6819583 59.092,45.9683968 L43,45.9724029 L43,43.9693366 L59,43.9693366 C59.195,43.9463013 66,43.2121775 66,36.9586044 C66,31.2638867 60.863,30.1081175 59.834,29.9338507 C59.321,29.8467173 58.96,29.3820059 59.004,28.8632117 C59.005,28.8441826 59.007,28.826155 59.009,28.8081274 C58.954,25.5902013 56.981,24.584662 56.126,24.3002266 C54.53,23.769414 52.751,24.2771913 51.81,25.5391231 C51.591,25.8355769 51.229,25.9868085 50.861,25.9307226 C50.497,25.8756383 50.192,25.625255 50.068,25.2767214 C49.447,23.5360568 48.546,22.4083304 47.293,21.1534094 C44.159,18.0386412 39.905,17.1783242 35.925,18.8528877 C33.837,19.7332353 32.012,21.7282894 30.922,24.327268 L29.078,23.5500782 C30.37,20.4743699 32.584,18.0887179 35.15,17.007062 C39.905,15.0049972 44.971,16.0255595 48.704,19.7342369 C49.774,20.8068789 50.66,21.851478 51.35,23.2035478 C52.843,22.0978551 54.857,21.7673492 56.757,22.3993166 C59.189,23.2085554 60.727,25.3207889 60.975,28.1290879 C64.381,28.9884034 68,31.7115721 68,36.9586044 L68,36.9586044 Z" id="cloudformation__AWS-CloudFormation_Icon_64_Squid" fill="#FFFFFF"></path>
    </g>
</g><text x="440" y="698" text-anchor="middle" font-size="13" font-weight="700" fill="#16202E">CI infrastructure root</text><text x="440" y="711" text-anchor="middle" font-size="9.5" fill="#5A6B7B">ci/infra · roles + CodeBuild of both pipelines</text>
<g transform="translate(787.00,147.00) scale(0.5750)">

    
    
    
    <defs>
        <linearGradient x1="0%" y1="100%" x2="100%" y2="0%" id="ssm__linearGradient-1">
            <stop stop-color="#B0084D" offset="0%"></stop>
            <stop stop-color="#FF4F8B" offset="100%"></stop>
        </linearGradient>
    </defs>
    <g id="ssm__Icon-Architecture/64/Arch_AWS-Systems-Manager_64" stroke="none" stroke-width="1" fill="none" fill-rule="evenodd">
        <g id="ssm__Icon-Architecture-BG/64/Management-Governance" fill="url(#ssm__linearGradient-1)">
            <rect id="ssm__Rectangle" x="0" y="0" width="80" height="80"></rect>
        </g>
        <path d="M47,54.998059 L60,54.998059 L60,56.9983576 L47,56.9983576 L47,58.9986562 L45,58.9986562 L45,56.9983576 L41,56.9983576 L41,54.998059 L45,54.998059 L45,53.9979097 L47,53.9979097 L47,54.998059 Z M51,48.9971632 L60,48.9971632 L60,50.9974618 L51,50.9974618 L51,52.9977604 L49,52.9977604 L49,50.9974618 L41,50.9974618 L41,48.9971632 L49,48.9971632 L49,47.9970139 L51,47.9970139 L51,48.9971632 Z M56,42.9962674 L60,42.9962674 L60,44.996566 L56,44.996566 L56,46.9968646 L54,46.9968646 L54,44.996566 L41,44.996566 L41,42.9962674 L54,42.9962674 L54,41.9961181 L56,41.9961181 L56,42.9962674 Z M21,46.9968646 L30,46.9968646 L30,48.9971632 L21,48.9971632 C19.745,48.9971632 18.404,48.6201069 17.413,47.9890127 C15.393,46.7098217 12,43.7153747 12,38.0415277 C12,31.1605005 16.665,28.6351235 19.38,27.7499913 L19.326,26.8338546 C19.324,21.1660085 23.074,15.3541409 28.046,13.2568278 C33.869,10.7814582 40.036,12.0076413 44.545,16.5373175 C45.944,17.9385267 47.096,19.6477818 47.978,21.6310779 C49.749,20.1558577 52.16,19.6507823 54.4,20.385892 C57.247,21.3200315 59.019,23.9514243 59.227,27.4939531 C62.065,28.1730545 68,30.5084031 68,38.1315411 C68,38.4165837 67.989,38.6916247 67.978,38.954664 L65.979,38.9016561 C65.989,38.6346162 66,38.3885795 66,38.1315411 C66,31.3975359 60.443,29.7062834 58.054,29.2922216 C57.784,29.2452146 57.546,29.0911916 57.394,28.8641577 C57.243,28.6391241 57.19,28.3630829 57.246,28.0980433 C57.217,25.1165982 55.956,23.0012824 53.776,22.2861757 C51.823,21.6430797 49.677,22.3521855 48.434,24.0444382 C48.214,24.3414825 47.853,24.4965057 47.482,24.4404973 C47.116,24.3874894 46.81,24.1354518 46.686,23.7863996 C45.853,21.4430498 44.656,19.4797567 43.129,17.9505284 C39.216,14.0189415 33.867,12.9547827 28.826,15.0991028 C24.618,16.8733676 21.324,22.0021333 21.324,26.7748458 L21.423,28.4290927 C21.451,28.9071641 21.136,29.3382284 20.671,29.4562461 C18.18,30.0903407 14,32.0486331 14,38.0415277 C14,42.5211964 16.438,45.0045672 18.485,46.2997605 C19.16,46.7308249 20.123,46.9968646 21,46.9968646 L21,46.9968646 Z M66,52.3176589 L64.236,52.2166438 C63.763,52.1916401 63.312,52.5176887 63.204,52.9957601 C62.866,54.4939838 62.278,55.9141958 61.456,57.2163902 C61.195,57.630452 61.271,58.1715328 61.637,58.4975814 L62.954,59.6717567 L59.673,62.9542468 L58.502,61.6410507 C58.176,61.2739959 57.633,61.1999849 57.222,61.4610238 C55.92,62.2831466 54.499,62.8722345 52.997,63.2112851 C52.521,63.3193012 52.191,63.7563665 52.22,64.2444394 L52.32,65.9997014 L47.68,65.9997014 L47.78,64.2424391 C47.809,63.7543662 47.479,63.317301 47.003,63.2092848 C45.505,62.8712344 44.084,62.2811463 42.78,61.4580234 C42.367,61.1959843 41.825,61.2709955 41.5,61.6380503 L40.326,62.9532466 L37.046,59.6717567 L38.361,58.4995817 C38.726,58.1735331 38.802,57.6324523 38.541,57.2193906 C37.72,55.9171962 37.132,54.4969842 36.794,52.9957601 C36.687,52.5176887 36.209,52.1916401 35.762,52.2166438 L34,52.3176589 L34,47.6769661 L35.768,47.7779812 C36.233,47.8039851 36.691,47.4769362 36.8,46.999865 C37.139,45.5046418 37.728,44.0864301 38.55,42.7852359 C38.811,42.371174 38.734,41.8290931 38.37,41.5040446 L37.046,40.3228683 L40.327,37.0413784 L41.508,38.3645759 C41.834,38.7286303 42.376,38.8036415 42.787,38.5436027 C44.087,37.7244804 45.505,37.1373927 47.003,36.7993423 C47.479,36.6913261 47.809,36.2542609 47.78,35.766188 L47.68,33.9949236 L52.32,33.9949236 L52.22,35.7681883 C52.191,36.2562612 52.521,36.6923263 52.997,36.8003424 C54.492,37.139393 55.909,37.7264807 57.211,38.5466031 C57.622,38.8076421 58.165,38.7316307 58.49,38.3675764 L59.673,37.0413784 L62.954,40.3228683 L61.633,41.5010441 C61.269,41.8270928 61.192,42.3681736 61.453,42.7822354 C62.275,44.0834297 62.864,45.5026415 63.202,46.999865 C63.31,47.4759361 63.763,47.8039851 64.234,47.7779812 L66,47.6769661 L66,52.3176589 Z M66.943,45.619659 L64.942,45.733676 C64.617,44.5885051 64.16,43.4873407 63.579,42.4451851 L65.076,41.1099858 C65.281,40.9269584 65.402,40.6679198 65.41,40.3918786 C65.418,40.1178377 65.312,39.8507978 65.117,39.6567688 L60.339,34.8780554 C60.145,34.6830263 59.868,34.5710096 59.604,34.5860118 C59.328,34.594013 59.069,34.714031 58.886,34.9190616 L57.546,36.4212858 C56.505,35.8411992 55.406,35.3861313 54.263,35.0600826 L54.377,33.0517828 C54.393,32.7767418 54.295,32.5077016 54.105,32.3076717 C53.917,32.1076419 53.654,31.994625 53.379,31.994625 L46.621,31.994625 C46.346,31.994625 46.083,32.1076419 45.895,32.3076717 C45.705,32.5077016 45.607,32.7767418 45.623,33.0517828 L45.737,35.0580823 C44.592,35.3831308 43.492,35.8391989 42.452,36.4182854 L41.114,34.9190616 C40.931,34.714031 40.672,34.594013 40.396,34.5860118 C40.113,34.5730099 39.855,34.6830263 39.661,34.8780554 L34.883,39.6567688 C34.688,39.8507978 34.582,40.1178377 34.59,40.3918786 C34.598,40.6669196 34.719,40.9269584 34.924,41.1099858 L36.424,42.4481855 C35.843,43.4903411 35.386,44.5895052 35.06,45.733676 L33.057,45.619659 C32.789,45.6016563 32.513,45.7026714 32.313,45.8906994 C32.113,46.0797277 32,46.3427669 32,46.617808 L32,53.376817 C32,53.6518581 32.113,53.9148973 32.313,54.1039255 C32.513,54.2919536 32.79,54.3899682 33.057,54.374966 L35.053,54.260949 C35.378,55.4091204 35.834,56.5112849 36.415,57.5544407 L34.924,58.8836391 C34.719,59.0666664 34.598,59.3267052 34.59,59.6017463 C34.582,59.8767873 34.688,60.1438272 34.883,60.3378562 L39.661,65.1165696 C39.855,65.3115987 40.138,65.4186146 40.396,65.4096133 C40.672,65.4016121 40.932,65.280594 41.114,65.0755634 L42.444,63.5833407 C43.487,64.1664277 44.59,64.6244961 45.736,64.9505448 L45.623,66.9428422 C45.607,67.2168831 45.705,67.4859233 45.895,67.6869533 C46.083,67.8869831 46.346,68 46.621,68 L53.379,68 C53.654,68 53.917,67.8869831 54.106,67.6869533 C54.295,67.4859233 54.393,67.2168831 54.377,66.9428422 L54.264,64.9525451 C55.412,64.6254962 56.515,64.168428 57.558,63.5863411 L58.886,65.0755634 C59.068,65.280594 59.328,65.4016121 59.604,65.4096133 C59.871,65.4216151 60.145,65.3115987 60.339,65.1165696 L65.117,60.3378562 C65.312,60.1438272 65.418,59.8767873 65.41,59.6017463 C65.402,59.3267052 65.281,59.0666664 65.075,58.8836391 L63.582,57.5524404 C64.163,56.5092846 64.619,55.4071201 64.945,54.260949 L66.943,54.374966 C67.213,54.3899682 67.487,54.2919536 67.687,54.1039255 C67.887,53.9148973 68,53.6518581 68,53.376817 L68,46.617808 C68,46.3427669 67.887,46.0797277 67.687,45.8906994 C67.487,45.7026714 67.214,45.6026564 66.943,45.619659 L66.943,45.619659 Z" id="ssm__AWS-Systems-Manager_Icon_64_Squid" fill="#FFFFFF"></path>
    </g>
</g><text x="810" y="208" text-anchor="middle" font-size="13" font-weight="700" fill="#16202E">Facts document</text><text x="810" y="221" text-anchor="middle" font-size="9.5" fill="#5A6B7B">SSM /agent-platform&lt;suffix&gt;/foundation</text>
<g transform="translate(697.00,397.00) scale(0.5750)">

    
    
    
    <defs>
        <linearGradient x1="0%" y1="100%" x2="100%" y2="0%" id="ssm__linearGradient-1">
            <stop stop-color="#B0084D" offset="0%"></stop>
            <stop stop-color="#FF4F8B" offset="100%"></stop>
        </linearGradient>
    </defs>
    <g id="ssm__Icon-Architecture/64/Arch_AWS-Systems-Manager_64" stroke="none" stroke-width="1" fill="none" fill-rule="evenodd">
        <g id="ssm__Icon-Architecture-BG/64/Management-Governance" fill="url(#ssm__linearGradient-1)">
            <rect id="ssm__Rectangle" x="0" y="0" width="80" height="80"></rect>
        </g>
        <path d="M47,54.998059 L60,54.998059 L60,56.9983576 L47,56.9983576 L47,58.9986562 L45,58.9986562 L45,56.9983576 L41,56.9983576 L41,54.998059 L45,54.998059 L45,53.9979097 L47,53.9979097 L47,54.998059 Z M51,48.9971632 L60,48.9971632 L60,50.9974618 L51,50.9974618 L51,52.9977604 L49,52.9977604 L49,50.9974618 L41,50.9974618 L41,48.9971632 L49,48.9971632 L49,47.9970139 L51,47.9970139 L51,48.9971632 Z M56,42.9962674 L60,42.9962674 L60,44.996566 L56,44.996566 L56,46.9968646 L54,46.9968646 L54,44.996566 L41,44.996566 L41,42.9962674 L54,42.9962674 L54,41.9961181 L56,41.9961181 L56,42.9962674 Z M21,46.9968646 L30,46.9968646 L30,48.9971632 L21,48.9971632 C19.745,48.9971632 18.404,48.6201069 17.413,47.9890127 C15.393,46.7098217 12,43.7153747 12,38.0415277 C12,31.1605005 16.665,28.6351235 19.38,27.7499913 L19.326,26.8338546 C19.324,21.1660085 23.074,15.3541409 28.046,13.2568278 C33.869,10.7814582 40.036,12.0076413 44.545,16.5373175 C45.944,17.9385267 47.096,19.6477818 47.978,21.6310779 C49.749,20.1558577 52.16,19.6507823 54.4,20.385892 C57.247,21.3200315 59.019,23.9514243 59.227,27.4939531 C62.065,28.1730545 68,30.5084031 68,38.1315411 C68,38.4165837 67.989,38.6916247 67.978,38.954664 L65.979,38.9016561 C65.989,38.6346162 66,38.3885795 66,38.1315411 C66,31.3975359 60.443,29.7062834 58.054,29.2922216 C57.784,29.2452146 57.546,29.0911916 57.394,28.8641577 C57.243,28.6391241 57.19,28.3630829 57.246,28.0980433 C57.217,25.1165982 55.956,23.0012824 53.776,22.2861757 C51.823,21.6430797 49.677,22.3521855 48.434,24.0444382 C48.214,24.3414825 47.853,24.4965057 47.482,24.4404973 C47.116,24.3874894 46.81,24.1354518 46.686,23.7863996 C45.853,21.4430498 44.656,19.4797567 43.129,17.9505284 C39.216,14.0189415 33.867,12.9547827 28.826,15.0991028 C24.618,16.8733676 21.324,22.0021333 21.324,26.7748458 L21.423,28.4290927 C21.451,28.9071641 21.136,29.3382284 20.671,29.4562461 C18.18,30.0903407 14,32.0486331 14,38.0415277 C14,42.5211964 16.438,45.0045672 18.485,46.2997605 C19.16,46.7308249 20.123,46.9968646 21,46.9968646 L21,46.9968646 Z M66,52.3176589 L64.236,52.2166438 C63.763,52.1916401 63.312,52.5176887 63.204,52.9957601 C62.866,54.4939838 62.278,55.9141958 61.456,57.2163902 C61.195,57.630452 61.271,58.1715328 61.637,58.4975814 L62.954,59.6717567 L59.673,62.9542468 L58.502,61.6410507 C58.176,61.2739959 57.633,61.1999849 57.222,61.4610238 C55.92,62.2831466 54.499,62.8722345 52.997,63.2112851 C52.521,63.3193012 52.191,63.7563665 52.22,64.2444394 L52.32,65.9997014 L47.68,65.9997014 L47.78,64.2424391 C47.809,63.7543662 47.479,63.317301 47.003,63.2092848 C45.505,62.8712344 44.084,62.2811463 42.78,61.4580234 C42.367,61.1959843 41.825,61.2709955 41.5,61.6380503 L40.326,62.9532466 L37.046,59.6717567 L38.361,58.4995817 C38.726,58.1735331 38.802,57.6324523 38.541,57.2193906 C37.72,55.9171962 37.132,54.4969842 36.794,52.9957601 C36.687,52.5176887 36.209,52.1916401 35.762,52.2166438 L34,52.3176589 L34,47.6769661 L35.768,47.7779812 C36.233,47.8039851 36.691,47.4769362 36.8,46.999865 C37.139,45.5046418 37.728,44.0864301 38.55,42.7852359 C38.811,42.371174 38.734,41.8290931 38.37,41.5040446 L37.046,40.3228683 L40.327,37.0413784 L41.508,38.3645759 C41.834,38.7286303 42.376,38.8036415 42.787,38.5436027 C44.087,37.7244804 45.505,37.1373927 47.003,36.7993423 C47.479,36.6913261 47.809,36.2542609 47.78,35.766188 L47.68,33.9949236 L52.32,33.9949236 L52.22,35.7681883 C52.191,36.2562612 52.521,36.6923263 52.997,36.8003424 C54.492,37.139393 55.909,37.7264807 57.211,38.5466031 C57.622,38.8076421 58.165,38.7316307 58.49,38.3675764 L59.673,37.0413784 L62.954,40.3228683 L61.633,41.5010441 C61.269,41.8270928 61.192,42.3681736 61.453,42.7822354 C62.275,44.0834297 62.864,45.5026415 63.202,46.999865 C63.31,47.4759361 63.763,47.8039851 64.234,47.7779812 L66,47.6769661 L66,52.3176589 Z M66.943,45.619659 L64.942,45.733676 C64.617,44.5885051 64.16,43.4873407 63.579,42.4451851 L65.076,41.1099858 C65.281,40.9269584 65.402,40.6679198 65.41,40.3918786 C65.418,40.1178377 65.312,39.8507978 65.117,39.6567688 L60.339,34.8780554 C60.145,34.6830263 59.868,34.5710096 59.604,34.5860118 C59.328,34.594013 59.069,34.714031 58.886,34.9190616 L57.546,36.4212858 C56.505,35.8411992 55.406,35.3861313 54.263,35.0600826 L54.377,33.0517828 C54.393,32.7767418 54.295,32.5077016 54.105,32.3076717 C53.917,32.1076419 53.654,31.994625 53.379,31.994625 L46.621,31.994625 C46.346,31.994625 46.083,32.1076419 45.895,32.3076717 C45.705,32.5077016 45.607,32.7767418 45.623,33.0517828 L45.737,35.0580823 C44.592,35.3831308 43.492,35.8391989 42.452,36.4182854 L41.114,34.9190616 C40.931,34.714031 40.672,34.594013 40.396,34.5860118 C40.113,34.5730099 39.855,34.6830263 39.661,34.8780554 L34.883,39.6567688 C34.688,39.8507978 34.582,40.1178377 34.59,40.3918786 C34.598,40.6669196 34.719,40.9269584 34.924,41.1099858 L36.424,42.4481855 C35.843,43.4903411 35.386,44.5895052 35.06,45.733676 L33.057,45.619659 C32.789,45.6016563 32.513,45.7026714 32.313,45.8906994 C32.113,46.0797277 32,46.3427669 32,46.617808 L32,53.376817 C32,53.6518581 32.113,53.9148973 32.313,54.1039255 C32.513,54.2919536 32.79,54.3899682 33.057,54.374966 L35.053,54.260949 C35.378,55.4091204 35.834,56.5112849 36.415,57.5544407 L34.924,58.8836391 C34.719,59.0666664 34.598,59.3267052 34.59,59.6017463 C34.582,59.8767873 34.688,60.1438272 34.883,60.3378562 L39.661,65.1165696 C39.855,65.3115987 40.138,65.4186146 40.396,65.4096133 C40.672,65.4016121 40.932,65.280594 41.114,65.0755634 L42.444,63.5833407 C43.487,64.1664277 44.59,64.6244961 45.736,64.9505448 L45.623,66.9428422 C45.607,67.2168831 45.705,67.4859233 45.895,67.6869533 C46.083,67.8869831 46.346,68 46.621,68 L53.379,68 C53.654,68 53.917,67.8869831 54.106,67.6869533 C54.295,67.4859233 54.393,67.2168831 54.377,66.9428422 L54.264,64.9525451 C55.412,64.6254962 56.515,64.168428 57.558,63.5863411 L58.886,65.0755634 C59.068,65.280594 59.328,65.4016121 59.604,65.4096133 C59.871,65.4216151 60.145,65.3115987 60.339,65.1165696 L65.117,60.3378562 C65.312,60.1438272 65.418,59.8767873 65.41,59.6017463 C65.402,59.3267052 65.281,59.0666664 65.075,58.8836391 L63.582,57.5524404 C64.163,56.5092846 64.619,55.4071201 64.945,54.260949 L66.943,54.374966 C67.213,54.3899682 67.487,54.2919536 67.687,54.1039255 C67.887,53.9148973 68,53.6518581 68,53.376817 L68,46.617808 C68,46.3427669 67.887,46.0797277 67.687,45.8906994 C67.487,45.7026714 67.214,45.6026564 66.943,45.619659 L66.943,45.619659 Z" id="ssm__AWS-Systems-Manager_Icon_64_Squid" fill="#FFFFFF"></path>
    </g>
</g><text x="720" y="458" text-anchor="middle" font-size="13" font-weight="700" fill="#16202E">Candidate image manifest</text><text x="720" y="471" text-anchor="middle" font-size="9.5" fill="#5A6B7B">SSM /agent-platform/ci/images/candidate</text>
<g transform="translate(877.00,397.00) scale(0.7188)">

    
    <g id="ecr__Icon-Architecture/48/Arch_Amazon-Elastic-Container-Registry_48" stroke="none" stroke-width="1" fill="none" fill-rule="evenodd">
        <g id="ecr__Icon-Architecture-BG/48/Compute" fill="#ED7100">
            <rect id="ecr__Rectangle" x="0" y="0" width="64" height="64"></rect>
        </g>
        <path d="M30.726,29.9221953 C30.279,30.1827125 30,30.6666734 30,31.1847019 L30,51.5341041 L15,42.8578781 L15,23.0114745 L32.172,13.0777519 L47.088,20.4574036 L30.726,29.9221953 Z M49.704,20.42033 C49.704,19.9023015 49.426,19.4203446 48.921,19.1317717 L32.879,11.1960158 C32.433,10.9354986 31.876,10.9344966 31.428,11.1940118 L13.729,21.4333413 C13.28,21.6928565 13,22.1768174 13,22.6968499 L13,43.1725028 C13,43.6905313 13.279,44.1744922 13.728,44.4350094 L29.816,53.7414867 C30.04,53.8717454 30.292,53.9368747 30.545,53.9368747 C30.796,53.9368747 31.047,53.8727473 31.272,53.7424887 C31.721,53.4829735 32,52.9990126 32,52.4789801 L32,31.4993265 L48.978,21.6778267 C49.426,21.4193134 49.704,20.9373565 49.704,20.42033 L49.704,20.42033 Z M50,42.9410432 L37.004,51.5331022 L37.004,44.4099597 L43.603,39.4160446 C43.853,39.2266686 44,38.9300798 44,38.6164571 L44,30.4803034 L50,27.0064062 L50,42.9410432 Z M51.273,24.7990236 C50.825,24.5385063 50.267,24.5375044 49.817,24.7990236 L42.879,28.812993 C42.639,28.9422497 42,29.287936 42,30.0304101 L42,38.1174664 L35.663,42.9129875 C35.255,43.1805187 35.004,43.6414338 35.004,44.1344126 L35.004,52.5461134 C35.004,53.0661459 35.284,53.5501068 35.733,53.809622 C35.951,53.9348707 36.195,54 36.445,54 C36.709,54 36.982,53.9278568 37.239,53.7775584 L51.275,44.4971327 C51.722,44.2376175 52,43.7536566 52,43.2356281 L52,26.0625322 C52,25.5424997 51.721,25.0585388 51.273,24.7990236 L51.273,24.7990236 Z" id="ecr__Amazon-Elastic-Container-Registry_Icon_48_Squid" fill="#FFFFFF"></path>
    </g>
</g><text x="900" y="458" text-anchor="middle" font-size="13" font-weight="700" fill="#16202E">ECR</text><text x="900" y="471" text-anchor="middle" font-size="9.5" fill="#5A6B7B">agent-platform/* and -staging/*</text>
<g transform="translate(787.00,517.00) scale(0.5750)">

    
    
    
    <defs>
        <linearGradient x1="0%" y1="100%" x2="100%" y2="0%" id="ssm__linearGradient-1">
            <stop stop-color="#B0084D" offset="0%"></stop>
            <stop stop-color="#FF4F8B" offset="100%"></stop>
        </linearGradient>
    </defs>
    <g id="ssm__Icon-Architecture/64/Arch_AWS-Systems-Manager_64" stroke="none" stroke-width="1" fill="none" fill-rule="evenodd">
        <g id="ssm__Icon-Architecture-BG/64/Management-Governance" fill="url(#ssm__linearGradient-1)">
            <rect id="ssm__Rectangle" x="0" y="0" width="80" height="80"></rect>
        </g>
        <path d="M47,54.998059 L60,54.998059 L60,56.9983576 L47,56.9983576 L47,58.9986562 L45,58.9986562 L45,56.9983576 L41,56.9983576 L41,54.998059 L45,54.998059 L45,53.9979097 L47,53.9979097 L47,54.998059 Z M51,48.9971632 L60,48.9971632 L60,50.9974618 L51,50.9974618 L51,52.9977604 L49,52.9977604 L49,50.9974618 L41,50.9974618 L41,48.9971632 L49,48.9971632 L49,47.9970139 L51,47.9970139 L51,48.9971632 Z M56,42.9962674 L60,42.9962674 L60,44.996566 L56,44.996566 L56,46.9968646 L54,46.9968646 L54,44.996566 L41,44.996566 L41,42.9962674 L54,42.9962674 L54,41.9961181 L56,41.9961181 L56,42.9962674 Z M21,46.9968646 L30,46.9968646 L30,48.9971632 L21,48.9971632 C19.745,48.9971632 18.404,48.6201069 17.413,47.9890127 C15.393,46.7098217 12,43.7153747 12,38.0415277 C12,31.1605005 16.665,28.6351235 19.38,27.7499913 L19.326,26.8338546 C19.324,21.1660085 23.074,15.3541409 28.046,13.2568278 C33.869,10.7814582 40.036,12.0076413 44.545,16.5373175 C45.944,17.9385267 47.096,19.6477818 47.978,21.6310779 C49.749,20.1558577 52.16,19.6507823 54.4,20.385892 C57.247,21.3200315 59.019,23.9514243 59.227,27.4939531 C62.065,28.1730545 68,30.5084031 68,38.1315411 C68,38.4165837 67.989,38.6916247 67.978,38.954664 L65.979,38.9016561 C65.989,38.6346162 66,38.3885795 66,38.1315411 C66,31.3975359 60.443,29.7062834 58.054,29.2922216 C57.784,29.2452146 57.546,29.0911916 57.394,28.8641577 C57.243,28.6391241 57.19,28.3630829 57.246,28.0980433 C57.217,25.1165982 55.956,23.0012824 53.776,22.2861757 C51.823,21.6430797 49.677,22.3521855 48.434,24.0444382 C48.214,24.3414825 47.853,24.4965057 47.482,24.4404973 C47.116,24.3874894 46.81,24.1354518 46.686,23.7863996 C45.853,21.4430498 44.656,19.4797567 43.129,17.9505284 C39.216,14.0189415 33.867,12.9547827 28.826,15.0991028 C24.618,16.8733676 21.324,22.0021333 21.324,26.7748458 L21.423,28.4290927 C21.451,28.9071641 21.136,29.3382284 20.671,29.4562461 C18.18,30.0903407 14,32.0486331 14,38.0415277 C14,42.5211964 16.438,45.0045672 18.485,46.2997605 C19.16,46.7308249 20.123,46.9968646 21,46.9968646 L21,46.9968646 Z M66,52.3176589 L64.236,52.2166438 C63.763,52.1916401 63.312,52.5176887 63.204,52.9957601 C62.866,54.4939838 62.278,55.9141958 61.456,57.2163902 C61.195,57.630452 61.271,58.1715328 61.637,58.4975814 L62.954,59.6717567 L59.673,62.9542468 L58.502,61.6410507 C58.176,61.2739959 57.633,61.1999849 57.222,61.4610238 C55.92,62.2831466 54.499,62.8722345 52.997,63.2112851 C52.521,63.3193012 52.191,63.7563665 52.22,64.2444394 L52.32,65.9997014 L47.68,65.9997014 L47.78,64.2424391 C47.809,63.7543662 47.479,63.317301 47.003,63.2092848 C45.505,62.8712344 44.084,62.2811463 42.78,61.4580234 C42.367,61.1959843 41.825,61.2709955 41.5,61.6380503 L40.326,62.9532466 L37.046,59.6717567 L38.361,58.4995817 C38.726,58.1735331 38.802,57.6324523 38.541,57.2193906 C37.72,55.9171962 37.132,54.4969842 36.794,52.9957601 C36.687,52.5176887 36.209,52.1916401 35.762,52.2166438 L34,52.3176589 L34,47.6769661 L35.768,47.7779812 C36.233,47.8039851 36.691,47.4769362 36.8,46.999865 C37.139,45.5046418 37.728,44.0864301 38.55,42.7852359 C38.811,42.371174 38.734,41.8290931 38.37,41.5040446 L37.046,40.3228683 L40.327,37.0413784 L41.508,38.3645759 C41.834,38.7286303 42.376,38.8036415 42.787,38.5436027 C44.087,37.7244804 45.505,37.1373927 47.003,36.7993423 C47.479,36.6913261 47.809,36.2542609 47.78,35.766188 L47.68,33.9949236 L52.32,33.9949236 L52.22,35.7681883 C52.191,36.2562612 52.521,36.6923263 52.997,36.8003424 C54.492,37.139393 55.909,37.7264807 57.211,38.5466031 C57.622,38.8076421 58.165,38.7316307 58.49,38.3675764 L59.673,37.0413784 L62.954,40.3228683 L61.633,41.5010441 C61.269,41.8270928 61.192,42.3681736 61.453,42.7822354 C62.275,44.0834297 62.864,45.5026415 63.202,46.999865 C63.31,47.4759361 63.763,47.8039851 64.234,47.7779812 L66,47.6769661 L66,52.3176589 Z M66.943,45.619659 L64.942,45.733676 C64.617,44.5885051 64.16,43.4873407 63.579,42.4451851 L65.076,41.1099858 C65.281,40.9269584 65.402,40.6679198 65.41,40.3918786 C65.418,40.1178377 65.312,39.8507978 65.117,39.6567688 L60.339,34.8780554 C60.145,34.6830263 59.868,34.5710096 59.604,34.5860118 C59.328,34.594013 59.069,34.714031 58.886,34.9190616 L57.546,36.4212858 C56.505,35.8411992 55.406,35.3861313 54.263,35.0600826 L54.377,33.0517828 C54.393,32.7767418 54.295,32.5077016 54.105,32.3076717 C53.917,32.1076419 53.654,31.994625 53.379,31.994625 L46.621,31.994625 C46.346,31.994625 46.083,32.1076419 45.895,32.3076717 C45.705,32.5077016 45.607,32.7767418 45.623,33.0517828 L45.737,35.0580823 C44.592,35.3831308 43.492,35.8391989 42.452,36.4182854 L41.114,34.9190616 C40.931,34.714031 40.672,34.594013 40.396,34.5860118 C40.113,34.5730099 39.855,34.6830263 39.661,34.8780554 L34.883,39.6567688 C34.688,39.8507978 34.582,40.1178377 34.59,40.3918786 C34.598,40.6669196 34.719,40.9269584 34.924,41.1099858 L36.424,42.4481855 C35.843,43.4903411 35.386,44.5895052 35.06,45.733676 L33.057,45.619659 C32.789,45.6016563 32.513,45.7026714 32.313,45.8906994 C32.113,46.0797277 32,46.3427669 32,46.617808 L32,53.376817 C32,53.6518581 32.113,53.9148973 32.313,54.1039255 C32.513,54.2919536 32.79,54.3899682 33.057,54.374966 L35.053,54.260949 C35.378,55.4091204 35.834,56.5112849 36.415,57.5544407 L34.924,58.8836391 C34.719,59.0666664 34.598,59.3267052 34.59,59.6017463 C34.582,59.8767873 34.688,60.1438272 34.883,60.3378562 L39.661,65.1165696 C39.855,65.3115987 40.138,65.4186146 40.396,65.4096133 C40.672,65.4016121 40.932,65.280594 41.114,65.0755634 L42.444,63.5833407 C43.487,64.1664277 44.59,64.6244961 45.736,64.9505448 L45.623,66.9428422 C45.607,67.2168831 45.705,67.4859233 45.895,67.6869533 C46.083,67.8869831 46.346,68 46.621,68 L53.379,68 C53.654,68 53.917,67.8869831 54.106,67.6869533 C54.295,67.4859233 54.393,67.2168831 54.377,66.9428422 L54.264,64.9525451 C55.412,64.6254962 56.515,64.168428 57.558,63.5863411 L58.886,65.0755634 C59.068,65.280594 59.328,65.4016121 59.604,65.4096133 C59.871,65.4216151 60.145,65.3115987 60.339,65.1165696 L65.117,60.3378562 C65.312,60.1438272 65.418,59.8767873 65.41,59.6017463 C65.402,59.3267052 65.281,59.0666664 65.075,58.8836391 L63.582,57.5524404 C64.163,56.5092846 64.619,55.4071201 64.945,54.260949 L66.943,54.374966 C67.213,54.3899682 67.487,54.2919536 67.687,54.1039255 C67.887,53.9148973 68,53.6518581 68,53.376817 L68,46.617808 C68,46.3427669 67.887,46.0797277 67.687,45.8906994 C67.487,45.7026714 67.214,45.6026564 66.943,45.619659 L66.943,45.619659 Z" id="ssm__AWS-Systems-Manager_Icon_64_Squid" fill="#FFFFFF"></path>
    </g>
</g><text x="810" y="578" text-anchor="middle" font-size="13" font-weight="700" fill="#16202E">Terraform inputs</text><text x="810" y="591" text-anchor="middle" font-size="9.5" fill="#5A6B7B">SSM · backend.tf + tfvars per root</text>
<g transform="translate(787.00,637.00) scale(0.7188)">

    
    <g id="s3__Icon-Architecture/48/Arch_Amazon-Simple-Storage-Service_48" stroke="none" stroke-width="1" fill="none" fill-rule="evenodd">
        <g id="s3__Icon-Architecture-BG/48/Storage" fill="#7AA116">
            <rect id="s3__Rectangle" x="0" y="0" width="64" height="64"></rect>
        </g>
        <g id="s3__Icon-Service/48/Amazon-Simple-Storage-Service_48" transform="translate(10.999800, 10.000200)" fill="#FFFFFF">
            <path d="M36.759,23.948 L36.993,22.131 C39.166,23.385 39.842,24.121 40.037,24.424 C39.713,24.485 38.832,24.509 36.759,23.948 L36.759,23.948 Z M19.5,11 C9.125,11 2.382,8.488 2,6.696 L2,6.511 C2.349,5.392 8.14,2 19.5,2 C30.84,2 36.632,5.381 37,6.505 L37,6.616 C36.724,8.446 29.961,11 19.5,11 L19.5,11 Z M34.818,23.362 C30.053,21.797 23.912,18.979 21.594,17.888 C21.535,16.786 20.628,15.906 19.512,15.906 C18.358,15.906 17.418,16.845 17.418,18 C17.418,19.154 18.358,20.094 19.512,20.094 C19.969,20.094 20.389,19.942 20.733,19.693 C23.132,20.822 29.619,23.798 34.558,25.38 L32.837,38.724 C32.583,40.352 27.919,42 19.497,42 C11.072,42 6.405,40.352 6.155,38.751 L2.435,9.814 C5.945,11.915 12.749,13 19.5,13 C26.25,13 33.054,11.915 36.565,9.815 L34.818,23.362 Z M39,6.5 C39,3.431 30.661,0 19.5,0 C8.339,0 -3.55271368e-15,3.431 -3.55271368e-15,6.5 L-3.55271368e-15,7.043 L4.174,39.033 C4.875,43.516 15.123,44 19.497,44 C23.869,44 34.113,43.516 34.818,39.007 L36.501,25.947 C37.778,26.279 38.812,26.456 39.616,26.455 C40.606,26.455 41.273,26.203 41.697,25.697 C42.047,25.281 42.185,24.756 42.085,24.221 C41.857,23 40.403,21.712 37.37,20.044 L37.27,19.989 L39,7.044 L39,6.5 Z" id="s3__Amazon-Simple-Storage-Service-Icon_48_Squid"></path>
        </g>
    </g>
</g><text x="810" y="698" text-anchor="middle" font-size="13" font-weight="700" fill="#16202E">State bucket</text><text x="810" y="711" text-anchor="middle" font-size="9.5" fill="#5A6B7B">S3 · three keys, one per root</text>
<rect x="1327.0" y="147.0" width="46" height="46" rx="8" fill="#64748B"/><circle cx="1350" cy="170" r="7" fill="none" stroke="#fff" stroke-width="2.4"/><circle cx="1350" cy="170" r="1.8" fill="#fff"/><text x="1350" y="208" text-anchor="middle" font-size="13" font-weight="700" fill="#16202E">Acceptance checks</text><text x="1350" y="221" text-anchor="middle" font-size="9.5" fill="#5A6B7B">verify.sh · e2e_*.py · read facts only</text>
<g transform="translate(1327.00,277.00) scale(0.5750)">

    
    
    
    <defs>
        <linearGradient x1="0%" y1="100%" x2="100%" y2="0%" id="cloudformation__linearGradient-1">
            <stop stop-color="#B0084D" offset="0%"></stop>
            <stop stop-color="#FF4F8B" offset="100%"></stop>
        </linearGradient>
    </defs>
    <g id="cloudformation__Icon-Architecture/64/Arch_AWS-CloudFormation_64" stroke="none" stroke-width="1" fill="none" fill-rule="evenodd">
        <g id="cloudformation__Icon-Architecture-BG/64/Management-Governance" fill="url(#cloudformation__linearGradient-1)">
            <rect id="cloudformation__Rectangle" x="0" y="0" width="80" height="80"></rect>
        </g>
        <path d="M53,39.9632039 L58,39.9632039 L58,37.9601375 L53,37.9601375 L53,39.9632039 Z M28,51.9816019 L33,51.9816019 L33,49.9785356 L28,49.9785356 L28,51.9816019 Z M18,51.9816019 L25,51.9816019 L25,49.9785356 L18,49.9785356 L18,51.9816019 Z M18,45.9724029 L30,45.9724029 L30,43.9693366 L18,43.9693366 L18,45.9724029 Z M18,33.9540048 L27,33.9540048 L27,31.9509385 L18,31.9509385 L18,33.9540048 Z M18,39.9632039 L51,39.9632039 L51,37.9601375 L18,37.9601375 L18,39.9632039 Z M37,61.9969337 L14,61.9969337 L14,27.9448058 L37,27.9448058 L37,35.9570712 L39,35.9570712 L39,26.9432726 C39,26.3904263 38.552,25.9417395 38,25.9417395 L13,25.9417395 C12.447,25.9417395 12,26.3904263 12,26.9432726 L12,62.9984668 C12,63.5513131 12.447,64 13,64 L38,64 C38.552,64 39,63.5513131 39,62.9984668 L39,42.9678034 L37,42.9678034 L37,61.9969337 Z M68,36.9586044 C68,43.4305117 62.173,45.6819583 59.092,45.9683968 L43,45.9724029 L43,43.9693366 L59,43.9693366 C59.195,43.9463013 66,43.2121775 66,36.9586044 C66,31.2638867 60.863,30.1081175 59.834,29.9338507 C59.321,29.8467173 58.96,29.3820059 59.004,28.8632117 C59.005,28.8441826 59.007,28.826155 59.009,28.8081274 C58.954,25.5902013 56.981,24.584662 56.126,24.3002266 C54.53,23.769414 52.751,24.2771913 51.81,25.5391231 C51.591,25.8355769 51.229,25.9868085 50.861,25.9307226 C50.497,25.8756383 50.192,25.625255 50.068,25.2767214 C49.447,23.5360568 48.546,22.4083304 47.293,21.1534094 C44.159,18.0386412 39.905,17.1783242 35.925,18.8528877 C33.837,19.7332353 32.012,21.7282894 30.922,24.327268 L29.078,23.5500782 C30.37,20.4743699 32.584,18.0887179 35.15,17.007062 C39.905,15.0049972 44.971,16.0255595 48.704,19.7342369 C49.774,20.8068789 50.66,21.851478 51.35,23.2035478 C52.843,22.0978551 54.857,21.7673492 56.757,22.3993166 C59.189,23.2085554 60.727,25.3207889 60.975,28.1290879 C64.381,28.9884034 68,31.7115721 68,36.9586044 L68,36.9586044 Z" id="cloudformation__AWS-CloudFormation_Icon_64_Squid" fill="#FFFFFF"></path>
    </g>
</g><text x="1350" y="338" text-anchor="middle" font-size="13" font-weight="700" fill="#16202E">Workloads root</text><text x="1350" y="351" text-anchor="middle" font-size="9.5" fill="#5A6B7B">terraform/workloads · runtimes, Deployments, scheduler</text>
<g transform="translate(1327.00,397.00) scale(0.5750)">

    
    
    
    <defs>
        <linearGradient x1="0%" y1="100%" x2="100%" y2="0%" id="codebuild__linearGradient-1">
            <stop stop-color="#2E27AD" offset="0%"></stop>
            <stop stop-color="#527FFF" offset="100%"></stop>
        </linearGradient>
    </defs>
    <g id="codebuild__Icon-Architecture/64/Arch_Amazon-CodeBuild_64" stroke="none" stroke-width="1" fill="none" fill-rule="evenodd">
        <g id="codebuild__Icon-Architecture-BG/64/Developer-Tools" fill="url(#codebuild__linearGradient-1)">
            <rect id="codebuild__Rectangle" x="0" y="0" width="80" height="80"></rect>
        </g>
        <path d="M65.4396329,22 L59.4855152,16.549 L53.5254424,22 L65.4396329,22 Z M57.2017304,15.938 L45.1237743,15.956 L51.5751437,21.083 L57.2017304,15.938 Z M51.7547896,33.5 L42.2484486,37 L60.5346071,37 L51.7547896,33.5 Z M37.7979962,57 L64.5959923,57 L64.5959923,39 L37.7979962,39 L37.7979962,57 Z M49.5226157,22 L42.9372563,16.766 L36.3955677,22 L49.5226157,22 Z M34.3092941,21.115 L40.7487533,15.963 L27.9115206,15.982 L34.3092941,21.115 Z M32.2250055,22 L25.6525488,16.726 L19.0800921,22 L28.8653308,22 L32.2250055,22 Z M27.8728124,24 L19.8423462,24 L27.8728124,31.965 L27.8728124,24 Z M27.8728124,35.083 L18.4478579,43.665 L27.8728124,52.889 L27.8728124,35.083 Z M27.8728124,56.137 L17.9476286,65.839 L17.9476286,66 L27.8728124,66 L27.8728124,56.137 Z M17.9476286,45.963 L17.9476286,63.053 L26.6837754,54.513 L17.9476286,45.963 Z M17.9476286,41.424 L26.6202542,33.528 L17.9476286,24.928 L17.9476286,41.424 Z M16.9551103,21.148 L23.3846443,15.989 L16.9551103,15.999 L16.9551103,21.148 Z M14.9700735,14 L12.9850368,14 L12.9850368,24 L14.9700735,24 L14.9700735,23 L14.9700735,15 L14.9700735,14 Z M68.9332976,23.36 C68.7854124,23.746 68.4171881,24 68.007278,24 L52.6857718,24 L52.6857718,32 L65.9636827,37.074 L65.9626901,37.076 C66.3259519,37.225 66.5810291,37.582 66.5810291,38 L66.5810291,58 C66.5810291,58.552 66.1373734,59 65.5885107,59 L36.8054778,59 C36.2576076,59 35.8129594,58.552 35.8129594,58 L35.8129594,38 C35.8129594,37.572 36.0829244,37.213 36.4590889,37.071 L36.4561113,37.064 L50.7007351,32 L50.7007351,24 L29.8578492,24 L29.8578492,67 C29.8578492,67.552 29.4141934,68 28.8653308,68 L16.9551103,68 C16.4072401,68 15.9625919,67.552 15.9625919,67 L15.9625919,26 L11.9925184,26 C11.4446482,26 11,25.552 11,25 L11,13 C11,12.448 11.4446482,12 11.9925184,12 L15.9625919,12 C16.5114545,12 16.9551103,12.448 16.9551103,13 L16.9551103,13.999 L59.6334004,14 L68.6752429,22.26 C68.977961,22.538 69.0811829,22.975 68.9332976,23.36 L68.9332976,23.36 Z M48.3395338,55.308 L54.1159908,42.083 L52.2996822,41.277 L46.5232252,54.502 L48.3395338,55.308 Z M53.7656318,50.888 L55.0489581,52.415 L59.3366375,48.757 C59.5470513,48.577 59.6731012,48.316 59.6860039,48.039 C59.6989067,47.761 59.5946922,47.49 59.4011511,47.292 L55.8221299,43.633 L54.4087837,45.038 L57.235476,47.928 L53.7656318,50.888 Z M40.8708331,47.984 C40.652479,47.783 40.5343693,47.493 40.5502496,47.195 C40.5651374,46.896 40.7130226,46.621 40.951227,46.443 L45.8215147,42.812 L47.0026116,44.419 L43.1000293,47.33 L46.37534,50.354 L45.0334551,51.829 L40.8708331,47.984 Z" id="codebuild__Amazon-CodeBuild_Icon_64_Squid" fill="#FFFFFF"></path>
    </g>
</g><text x="1350" y="458" text-anchor="middle" font-size="13" font-weight="700" fill="#16202E">Image build</text><text x="1350" y="471" text-anchor="middle" font-size="9.5" fill="#5A6B7B">candidate manifest writer</text>
<circle cx="530" cy="170" r="9" fill="#232F3E"/><text x="530" y="173" text-anchor="middle" font-size="10.5" font-weight="700" fill="#fff">1</text>
<circle cx="1100" cy="250" r="9" fill="#232F3E"/><text x="1100" y="253" text-anchor="middle" font-size="10.5" font-weight="700" fill="#fff">2</text>
<circle cx="1000" cy="490" r="9" fill="#232F3E"/><text x="1000" y="493" text-anchor="middle" font-size="10.5" font-weight="700" fill="#fff">3</text>
<circle cx="940" cy="300" r="9" fill="#232F3E"/><text x="940" y="303" text-anchor="middle" font-size="10.5" font-weight="700" fill="#fff">4</text>
<text x="40" y="810" font-size="11" font-weight="700" fill="#16202E">Flows</text>
<circle cx="92" cy="806" r="5" fill="#1D4ED8"/><text x="102" y="810" font-size="10.5" fill="#5A6B7B">publish / build →</text>
<circle cx="241" cy="806" r="5" fill="#0F766E"/><text x="251" y="810" font-size="10.5" fill="#5A6B7B">read ←</text>
<circle cx="313" cy="806" r="5" fill="#94A3B8"/><text x="323" y="810" font-size="10.5" fill="#5A6B7B">wiring (static)</text>
<text x="40" y="832" font-size="10" fill="#5A6B7B">Application roles are never admin and cannot read the foundation state or its secrets · foundation applies happen only from the operations repository</text>
</svg>