<svg xmlns="http://www.w3.org/2000/svg" viewBox="0 0 1620 900" font-family="-apple-system,BlinkMacSystemFont,'Segoe UI',Helvetica,Arial,sans-serif" role="img" aria-label="Workflow: a Claude Code Workflow script, run as a governed pipeline in the cloud">
<title>Workflow: a Claude Code Workflow script, run as a governed pipeline in the cloud</title>
<defs>
<pattern id="grid" width="34" height="34" patternUnits="userSpaceOnUse"><path d="M34 0 H0 V34" fill="none" stroke="#EAEFF6" stroke-width="1"/></pattern>
<marker id="ah" viewBox="0 0 10 10" refX="8" refY="5" markerWidth="7" markerHeight="7" orient="auto-start-reverse"><path d="M1 1 L9 5 L1 9" fill="none" stroke="context-stroke" stroke-width="1.7" stroke-linecap="round" stroke-linejoin="round"/></marker>
<style>text:not([fill="#fff"]){paint-order:stroke;stroke:#FBFCFE;stroke-width:6px;stroke-linejoin:round}@media (prefers-reduced-motion: no-preference){.flow{stroke-dasharray:6 6;animation:dm .8s linear infinite}}@keyframes dm{to{stroke-dashoffset:-12}}</style>
</defs>
<rect width="1620" height="900" fill="#FBFCFE"/><rect width="1620" height="900" fill="url(#grid)"/>
<text x="40" y="46" font-size="21" font-weight="800" fill="#16202E">Workflow: a Claude Code Workflow script, run as a governed pipeline in the cloud</text>
<text x="40" y="68" font-size="12" fill="#5A6B7B">Same agent() / parallel() / pipeline() / phase() dialect as the local Workflow tool. Every agent() call is a governed invocation; the script never sees the backend's AWS identity.</text>
<rect x="190" y="110" width="1390" height="660" rx="12" fill="rgba(0,164,166,0.045)" stroke="#00A4A6" stroke-width="1.5" stroke-dasharray="9 5"/>
<text x="208" y="130" font-size="11" font-weight="700" fill="#0B7E7F">Platform account</text>
<rect x="200" y="150" width="340" height="120" rx="12" fill="rgba(231,21,123,0.04)" stroke="#E7157B" stroke-width="1.5" stroke-dasharray="3 4"/>
<text x="216" y="168" font-size="11" font-weight="700" fill="#B21667">Scheduled runs</text>
<rect x="380" y="360" width="420" height="390" rx="12" fill="rgba(140,79,255,0.06)" stroke="#8C4FFF" stroke-width="1.5" stroke-dasharray="6 4"/>
<text x="560" y="742" font-size="11" font-weight="700" fill="#7C3AED">Backend pod (EKS)</text>
<path class="flow" d="M 133.0 430.0 L 437.0 430.0" fill="none" stroke="#1D4ED8" stroke-width="2" marker-end="url(#ah)"/>
<path class="flow" d="M 293.0 200.0 L 437.0 200.0" fill="none" stroke="#15803D" stroke-width="2" marker-end="url(#ah)"/>
<path class="flow" d="M 460.0 223.0 L 460.0 407.0" fill="none" stroke="#15803D" stroke-width="2" marker-end="url(#ah)"/>
<path class="flow" d="M 460.0 453.0 L 460.0 647.0" fill="none" stroke="#0369A1" stroke-width="2" marker-end="url(#ah)"/>
<path class="flow" d="M 483.0 430.0 L 697.0 430.0" fill="none" stroke="#1D4ED8" stroke-width="2" marker-end="url(#ah)"/>
<path class="flow" d="M 743.0 430.0 L 850.0 430.0 L 850.0 270.0 L 957.0 270.0" fill="none" stroke="#1D4ED8" stroke-width="2" marker-end="url(#ah)"/>
<path class="flow" d="M 743.0 430.0 L 957.0 430.0" fill="none" stroke="#1D4ED8" stroke-width="2" marker-end="url(#ah)"/>
<path class="flow" d="M 743.0 430.0 L 850.0 430.0 L 850.0 590.0 L 957.0 590.0" fill="none" stroke="#1D4ED8" stroke-width="2" marker-end="url(#ah)"/>
<path class="flow" d="M 1003.0 270.0 L 1140.0 270.0 L 1140.0 430.0 L 1277.0 430.0" fill="none" stroke="#1D4ED8" stroke-width="2" marker-end="url(#ah)"/>
<path class="flow" d="M 1003.0 430.0 L 1277.0 430.0" fill="none" stroke="#1D4ED8" stroke-width="2" marker-end="url(#ah)"/>
<path class="flow" d="M 1003.0 590.0 L 1140.0 590.0 L 1140.0 430.0 L 1277.0 430.0" fill="none" stroke="#1D4ED8" stroke-width="2" marker-end="url(#ah)"/>
<path class="flow" d="M 980.0 613.0 L 980.0 670.0 L 1277.0 670.0" fill="none" stroke="#7E22CE" stroke-width="2" marker-end="url(#ah)"/>
<path class="flow" d="M 720.0 453.0 L 720.0 745.0 L 1300.0 745.0 L 1300.0 693.0" fill="none" stroke="#7E22CE" stroke-width="2" marker-end="url(#ah)"/>
<rect x="256" y="406" width="87" height="14" rx="3" fill="#FBFCFE" opacity="0.92"/>
<text x="300" y="416" text-anchor="middle" font-size="9.5" fill="#48586a">run pipeline</text>
<rect x="406" y="306" width="107" height="14" rx="3" fill="#FBFCFE" opacity="0.92"/>
<text x="460" y="316" text-anchor="middle" font-size="9.5" fill="#48586a">pipeline:{name}</text>
<rect x="393" y="546" width="133" height="14" rx="3" fill="#FBFCFE" opacity="0.92"/>
<text x="460" y="556" text-anchor="middle" font-size="9.5" fill="#48586a">stdio NDJSON bridge</text>
<rect x="563" y="406" width="54" height="14" rx="3" fill="#FBFCFE" opacity="0.92"/>
<text x="590" y="416" text-anchor="middle" font-size="9.5" fill="#48586a">agent()</text>
<rect x="837" y="394" width="127" height="14" rx="3" fill="#FBFCFE" opacity="0.92"/>
<text x="900" y="404" text-anchor="middle" font-size="9.5" fill="#48586a">parallel() fan-out</text>
<rect x="1150" y="394" width="120" height="14" rx="3" fill="#FBFCFE" opacity="0.92"/>
<text x="1210" y="404" text-anchor="middle" font-size="9.5" fill="#48586a">per-session grant</text>
<rect x="1067" y="646" width="127" height="14" rx="3" fill="#FBFCFE" opacity="0.92"/>
<text x="1130" y="656" text-anchor="middle" font-size="9.5" fill="#48586a">AGENT / TOOL spans</text>
<rect x="924" y="735" width="173" height="14" rx="3" fill="#FBFCFE" opacity="0.92"/>
<text x="1010" y="745" text-anchor="middle" font-size="9.5" fill="#48586a">run / phase / agent spans</text>
<circle r="4" fill="#1D4ED8"><animateMotion dur="2.6s" begin="0.00s" repeatCount="indefinite" path="M 133.0 430.0 L 437.0 430.0"/></circle>
<circle r="4" fill="#1D4ED8"><animateMotion dur="2.6s" begin="0.65s" repeatCount="indefinite" path="M 483.0 430.0 L 697.0 430.0"/></circle>
<circle r="4" fill="#1D4ED8"><animateMotion dur="2.6s" begin="1.30s" repeatCount="indefinite" path="M 743.0 430.0 L 957.0 430.0"/></circle>
<circle r="4" fill="#1D4ED8"><animateMotion dur="2.6s" begin="1.95s" repeatCount="indefinite" path="M 1003.0 430.0 L 1277.0 430.0"/></circle>
<circle r="4" fill="#1D4ED8"><animateMotion dur="2.6s" begin="0.00s" repeatCount="indefinite" path="M 743.0 430.0 L 850.0 430.0 L 850.0 270.0 L 957.0 270.0"/></circle>
<circle r="4" fill="#1D4ED8"><animateMotion dur="2.6s" begin="1.30s" repeatCount="indefinite" path="M 1003.0 270.0 L 1140.0 270.0 L 1140.0 430.0 L 1277.0 430.0"/></circle>
<circle r="4" fill="#1D4ED8"><animateMotion dur="2.6s" begin="0.00s" repeatCount="indefinite" path="M 743.0 430.0 L 850.0 430.0 L 850.0 590.0 L 957.0 590.0"/></circle>
<circle r="4" fill="#1D4ED8"><animateMotion dur="2.6s" begin="1.30s" repeatCount="indefinite" path="M 1003.0 590.0 L 1140.0 590.0 L 1140.0 430.0 L 1277.0 430.0"/></circle>
<circle r="4" fill="#15803D"><animateMotion dur="2.2s" begin="0.00s" repeatCount="indefinite" path="M 293.0 200.0 L 437.0 200.0"/></circle>
<circle r="4" fill="#15803D"><animateMotion dur="2.2s" begin="1.10s" repeatCount="indefinite" path="M 460.0 223.0 L 460.0 407.0"/></circle>
<circle r="4" fill="#0369A1"><animateMotion dur="1.8s" begin="0.00s" repeatCount="indefinite" path="M 460.0 453.0 L 460.0 647.0"/></circle>
<rect x="87.0" y="407.0" width="46" height="46" rx="8" fill="#334155"/><rect x="97" y="420" width="26" height="20" rx="3" fill="none" stroke="#fff" stroke-width="2.2"/><line x1="97" y1="426" x2="123" y2="426" stroke="#fff" stroke-width="2"/><circle cx="101" cy="423" r="1.3" fill="#fff"/><circle cx="105" cy="423" r="1.3" fill="#fff"/><text x="110" y="468" text-anchor="middle" font-size="13" font-weight="700" fill="#16202E">Portal</text><text x="110" y="481" text-anchor="middle" font-size="9.5" fill="#5A6B7B">run · Insights</text>
<g transform="translate(247.00,177.00) scale(0.5750)">

    
    <defs>
        <linearGradient x1="0%" y1="100%" x2="100%" y2="0%" id="eventbridge__linearGradient-1">
            <stop stop-color="#B0084D" offset="0%"></stop>
            <stop stop-color="#FF4F8B" offset="100%"></stop>
        </linearGradient>
    </defs>
    <g id="eventbridge__Icon-Architecture/64/Arch_Amazon-EventBridge_64" stroke="none" stroke-width="1" fill="none" fill-rule="evenodd">
        <g id="eventbridge__Icon-Architecture-BG/64/Application-Integration" fill="#E7157B">
            <rect id="eventbridge__Rectangle" x="0" y="0" width="80" height="80"></rect>
        </g>
        <path d="M53.656744,66 C51.5137882,66 49.7695913,64.247 49.7695913,62.091 C49.7695913,59.935 51.5137882,58.182 53.656744,58.182 C55.7996998,58.182 57.5438968,59.935 57.5438968,62.091 C57.5438968,64.247 55.7996998,66 53.656744,66 L53.656744,66 Z M45.1326526,49 L34.7977386,49 L29.6297845,40 L34.7977386,31 L45.1326526,31 L50.2996124,40 L45.1326526,49 Z M27.6210741,21.818 C25.4781184,21.818 23.7339214,20.065 23.7339214,17.909 C23.7339214,15.753 25.4781184,14 27.6210741,14 C29.7650244,14 31.5092213,15.753 31.5092213,17.909 C31.5092213,20.065 29.7650244,21.818 27.6210741,21.818 L27.6210741,21.818 Z M53.656744,56.182 C52.918891,56.182 52.214848,56.325 51.5635088,56.576 L47.3402451,49.41 L47.117497,49.543 L52.3093171,40.5 C52.4863222,40.19 52.4863222,39.81 52.3093171,39.5 L46.5675877,29.5 C46.3895881,29.19 46.0614325,29 45.7064278,29 L35.2581509,29 L35.2989218,28.976 L31.4266852,22.404 C32.691576,21.32 33.4980434,19.708 33.4980434,17.909 C33.4980434,14.651 30.8618597,12 27.6210741,12 C24.381283,12 21.7450993,14.651 21.7450993,17.909 C21.7450993,21.167 24.381283,23.818 27.6210741,23.818 C28.3599216,23.818 29.0639646,23.675 29.7153038,23.424 L33.3299879,29.557 L27.6200797,39.5 C27.4430746,39.81 27.4430746,40.19 27.6200797,40.5 L33.3628035,50.5 C33.5408031,50.81 33.8689587,51 34.2239635,51 L45.7064278,51 C45.7889639,51 45.8695112,50.987 45.9470752,50.968 L49.8521274,57.596 C48.5862421,58.68 47.7807692,60.292 47.7807692,62.091 C47.7807692,65.349 50.4159585,68 53.656744,68 C56.8975296,68 59.5327189,65.349 59.5327189,62.091 C59.5327189,58.833 56.8975296,56.182 53.656744,56.182 L53.656744,56.182 Z M59.5844283,32.104 C57.4414725,32.104 55.6982699,30.351 55.6982699,28.195 C55.6982699,26.039 57.4414725,24.286 59.5844283,24.286 C61.7273841,24.286 63.471581,26.039 63.471581,28.195 C63.471581,30.351 61.7273841,32.104 59.5844283,32.104 L59.5844283,32.104 Z M66.8665003,39.5 L63.091716,32.925 C64.5266511,31.846 65.4604031,30.13 65.4604031,28.195 C65.4604031,24.937 62.8252138,22.286 59.5844283,22.286 C58.7600615,22.286 57.9744768,22.459 57.2614841,22.77 L54.1837819,17.409 C54.0067767,17.1 53.6776267,16.909 53.3226219,16.909 L40.9949082,16.909 L40.9949082,18.909 L52.7488468,18.909 L55.5958456,23.869 C54.4383511,24.949 53.7094478,26.486 53.7094478,28.195 C53.7094478,31.453 56.3446371,34.104 59.5844283,34.104 C60.1880358,34.104 60.771755,34.011 61.3206699,33.84 L64.85779,40 L59.8917013,48.648 L61.6140212,49.648 L66.8665003,40.5 C67.0444999,40.19 67.0444999,39.81 66.8665003,39.5 L66.8665003,39.5 Z M21.229,55.247 C19.0850498,55.247 17.3408528,53.493 17.3408528,51.338 C17.3408528,49.182 19.0850498,47.429 21.229,47.429 C23.3719558,47.429 25.1161527,49.182 25.1161527,51.338 C25.1161527,53.493 23.3719558,55.247 21.229,55.247 L21.229,55.247 Z M24.4767464,56.258 C26.0588544,55.198 27.1049748,53.389 27.1049748,51.338 C27.1049748,48.08 24.4687911,45.429 21.229,45.429 C20.2902759,45.429 19.4062445,45.657 18.618671,46.052 L15.1432044,40 L20.9018387,29.971 L19.1785244,28.971 L13.1334997,39.5 C12.9555001,39.81 12.9555001,40.19 13.1334997,40.5 L17.0047419,47.24 C15.9834817,48.304 15.3520307,49.747 15.3520307,51.338 C15.3520307,54.596 17.9882144,57.247 21.229,57.247 C21.7172558,57.247 22.189601,57.18 22.6440469,57.066 L25.8162181,62.591 C25.9942177,62.9 26.3223733,63.091 26.6773781,63.091 L39.0060862,63.091 L39.0060862,61.091 L27.2511532,61.091 L24.4767464,56.258 Z" id="eventbridge__Amazon-EventBridge_Icon_64_Squid" fill="#FFFFFF"></path>
    </g>
</g><text x="270" y="238" text-anchor="middle" font-size="13" font-weight="700" fill="#16202E">EventBridge</text><text x="270" y="251" text-anchor="middle" font-size="9.5" fill="#5A6B7B">Scheduler · pipeline:{name}</text>
<g transform="translate(437.00,177.00) scale(0.7188)">

    
    <g id="lambda__Icon-Architecture/48/Arch_AWS-Lambda_48" stroke="none" stroke-width="1" fill="none" fill-rule="evenodd">
        <g id="lambda__Icon-Architecture-BG/48/Compute" fill="#ED7100">
            <rect id="lambda__Rectangle" x="0" y="0" width="64" height="64"></rect>
        </g>
        <path d="M22.6794094,52 L13.5740701,52 L23.8376189,30.41 L28.3997494,39.861 L22.6794094,52 Z M24.7269406,27.667 C24.5606285,27.321 24.2120702,27.103 23.8306478,27.103 L23.8276601,27.103 C23.4452418,27.104 23.0966835,27.325 22.9323632,27.672 L11.0973143,52.569 C10.9499239,52.879 10.9708374,53.243 11.1540795,53.534 C11.3353298,53.824 11.6540117,54 11.9955989,54 L23.309802,54 C23.695208,54 24.0447622,53.777 24.2100784,53.428 L30.4044577,40.284 C30.5329264,40.01 30.5319305,39.692 30.3994783,39.42 L24.7269406,27.667 Z M51.0082382,52 L41.985557,52 L26.9547262,19.578 C26.7914017,19.226 26.4388599,19 26.0524581,19 L20.1279625,19 L20.1349337,12 L31.8146251,12 L46.7747483,44.42 C46.9380728,44.774 47.2906147,45 47.6790082,45 L51.0082382,45 L51.0082382,52 Z M52.0041191,43 L48.3143803,43 L33.354257,10.58 C33.1909326,10.226 32.8383907,10 32.450993,10 L19.1400486,10 C18.5913182,10 18.1451636,10.447 18.1441677,10.999 L18.1362006,19.999 C18.1362006,20.265 18.2407681,20.519 18.4269979,20.707 C18.6142235,20.895 18.8671772,21 19.1310857,21 L25.4170861,21 L40.4479168,53.422 C40.6112413,53.774 40.9627873,54 41.350185,54 L52.0041191,54 C52.5548412,54 53,53.552 53,53 L53,44 C53,43.448 52.5548412,43 52.0041191,43 L52.0041191,43 Z" id="lambda__AWS-Lambda_Icon_48_Squid" fill="#FFFFFF"></path>
    </g>
</g><text x="460" y="238" text-anchor="middle" font-size="13" font-weight="700" fill="#16202E">Schedule runner</text><text x="460" y="251" text-anchor="middle" font-size="9.5" fill="#5A6B7B">delegates to backend</text>
<g transform="translate(437.00,407.00) scale(0.5750)">

    
    
    
    <defs>
        <linearGradient x1="0%" y1="100%" x2="100%" y2="0%" id="eks__linearGradient-1">
            <stop stop-color="#C8511B" offset="0%"></stop>
            <stop stop-color="#FF9900" offset="100%"></stop>
        </linearGradient>
    </defs>
    <g id="eks__Icon-Architecture/64/Arch_Amazon-Elastic-Container-Kubernetes_64" stroke="none" stroke-width="1" fill="none" fill-rule="evenodd">
        <g id="eks__Icon-Architecture-BG/64/Containers" fill="#ED7100">
            <rect id="eks__Rectangle" x="0" y="0" width="80" height="80"></rect>
        </g>
        <path d="M46.842,32.1990168 L40.013,40.1200132 L47.441,48.7840092 L44.669,48.7840092 L38,41.0000169 L38,49.0000169 L36,49.0000169 L36,32.0000169 L38,32.0000169 L38,39.0000169 L44.181,32.1990168 L46.842,32.1990168 Z M64,48.2340095 L56,43.4330117 L56,32.0000169 C56,31.6440171 55.812,31.3150172 55.504,31.1360173 L44,24.4260204 L44,14.7520248 L64,26.5710194 L64,48.2340095 Z M65.509,25.13902 L43.509,12.139026 C43.199,11.9560261 42.818,11.9540261 42.504,12.131026 C42.193,12.3090259 42,12.6410257 42,13.0000256 L42,25.0000201 C42,25.3550199 42.189,25.6840198 42.496,25.8640197 L54,32.5740166 L54,44.0000114 C54,44.3510113 54.185,44.6770111 54.486,44.857011 L64.486,50.8570083 C64.644,50.9520082 64.822,51 65,51 C65.17,51 65.34,50.9570082 65.493,50.8700083 C65.807,50.6930084 66,50.3600085 66,50 L66,26.0000196 C66,25.6460198 65.814,25.31902 65.509,25.13902 L65.509,25.13902 Z M40.445,66.863001 L17,54.3990067 L17,26.5710194 L37,14.7520248 L37,24.4510204 L26.463,31.1560173 C26.175,31.3400172 26,31.6580171 26,32.0000169 L26,49.0000091 C26,49.373009 26.208,49.7150088 26.538,49.8870087 L39.991,56.8870055 C40.28,57.0370055 40.624,57.0380055 40.912,56.8880055 L53.964,50.1440086 L61.996,54.9640064 L40.445,66.863001 Z M64.515,54.1420068 L54.515,48.1420095 C54.217,47.9640096 53.849,47.9520096 53.541,48.1120095 L40.455,54.8730065 L28,48.3930094 L28,32.5490167 L38.537,25.8440197 C38.825,25.6600198 39,25.3420199 39,25.0000201 L39,13.0000256 C39,12.6410257 38.808,12.3090259 38.496,12.131026 C38.184,11.9540261 37.802,11.9560261 37.491,12.139026 L15.491,25.13902 C15.187,25.31902 15,25.6460198 15,26.0000196 L15,55 C15,55.3690062 15.204,55.7090061 15.53,55.883006 L39.984,68.8830001 C40.131,68.961 40.292,69 40.453,69 C40.62,69 40.786,68.958 40.937,68.8750001 L64.484,55.875006 C64.797,55.7020061 64.993,55.3750062 65.0001416,55.0180064 C65.006,54.6600066 64.821,54.3260067 64.515,54.1420068 L64.515,54.1420068 Z" id="eks__Amazon-Elastic-Container-Kubernetes_Icon_64_Squid" fill="#FFFFFF"></path>
    </g>
</g><text x="460" y="468" text-anchor="middle" font-size="13" font-weight="700" fill="#16202E">Workflow engine</text><text x="460" y="481" text-anchor="middle" font-size="9.5" fill="#5A6B7B">backend pod · MAX_FANOUT</text>
<rect x="437.0" y="647.0" width="46" height="46" rx="8" fill="#64748B"/><circle cx="460" cy="670" r="7" fill="none" stroke="#fff" stroke-width="2.4"/><circle cx="460" cy="670" r="1.8" fill="#fff"/><text x="460" y="708" text-anchor="middle" font-size="13" font-weight="700" fill="#16202E">Script sandbox</text><text x="460" y="721" text-anchor="middle" font-size="9.5" fill="#5A6B7B">Node --permission · no AWS env</text>
<g transform="translate(697.00,407.00) scale(0.7188)">

    
    <g id="dynamodb__Icon-Architecture/48/Arch_Amazon-DynamoDB_48" stroke="none" stroke-width="1" fill="none" fill-rule="evenodd">
        <g id="dynamodb__Icon-Architecture-BG/48/Database" fill="#C925D1">
            <rect id="dynamodb__Rectangle" x="0" y="0" width="64" height="64"></rect>
        </g>
        <path d="M46.5858287,25.2492763 L43.0008475,25.2492763 C42.6728493,25.2492763 42.3658509,25.086523 42.1788519,24.8145936 C41.9918528,24.5416533 41.9488531,24.1939071 42.0648525,23.8835638 L44.5578394,17.162156 L35.6448862,17.162156 L31.5539077,26.2601663 L36.0008843,26.2601663 C36.3218827,26.2601663 36.6238811,26.4158434 36.8128801,26.6806966 C36.9998791,26.943528 37.0518788,27.2821762 36.9488794,27.5904976 L33.2888986,38.6910812 L46.5858287,25.2492763 Z M49.7068123,24.9530855 L31.7079069,43.1491063 C31.5159079,43.3442081 31.2589093,43.4452971 31.0009106,43.4452971 C30.8189116,43.4452971 30.6379125,43.3957635 30.4759134,43.2946744 C30.0809155,43.0480173 29.9049164,42.5597574 30.0529156,42.1149658 L34.6128916,28.2819464 L30.0009159,28.2819464 C29.6609177,28.2819464 29.3449193,28.1070624 29.1599203,27.8189588 C28.9769213,27.5288333 28.9499214,27.1659238 29.0909207,26.8525479 L34.0908944,15.7327574 C34.2528935,15.3718697 34.6078917,15.1403759 35.0008896,15.1403759 L46.0008318,15.1403759 C46.32883,15.1403759 46.6358284,15.3031292 46.8228274,15.5750586 C47.0098265,15.8479989 47.0528262,16.1957451 46.9378268,16.5060883 L44.44384,23.2274962 L48.999816,23.2274962 C49.4038139,23.2274962 49.769812,23.4741534 49.9238111,23.8512154 C50.0788103,24.2292882 49.9928108,24.663971 49.7068123,24.9530855 L49.7068123,24.9530855 Z M41.0008581,44.2196388 C38.2908723,46.1059597 33.3138985,47.1016863 28.5329236,47.1016863 C23.7169489,47.1016863 18.6959753,46.0928181 15.9999895,44.1781923 L16.0009895,47.9943023 C16.0009895,49.6582273 20.7689644,51.9782199 28.5329236,51.9782199 C36.0278842,51.9782199 41.0008581,49.2761108 41.0008581,47.4888572 L41.0008581,44.2196388 Z M43.0648472,40.9504204 C43.0648472,41.1374351 43.0328474,41.3173735 43.0008475,41.4963011 L43.0008475,47.4888572 C43.0008475,51.0795387 36.5108817,54 28.5329236,54 C21.6299599,54 14.6619965,52.1106465 14.0599997,48.4997473 L14.001,48.4997473 L14,43.4452971 L14,30.3037265 L14,16.1512659 L14.001,16.1512659 C14.001,12.1552176 21.4879606,10 28.5329236,10 C32.4739029,10 36.262883,10.6398934 38.9298689,11.755916 L38.163873,13.6240408 C35.7318858,12.6050636 32.2209042,12.0217801 28.5329236,12.0217801 C20.7689644,12.0217801 16.0009895,14.4266875 16.0009895,16.1512659 C16.0009895,17.8758443 20.7689644,20.2807517 28.5329236,20.2807517 C28.7279226,20.2807517 28.9319215,20.2817626 29.1289205,20.2736755 L29.2069201,22.2934338 C28.9819212,22.3025318 28.7579224,22.3025318 28.5329236,22.3025318 C23.7159489,22.3025318 18.6959753,21.2936636 15.9999895,19.3790378 L15.9999895,23.7369848 L16.0009895,23.7369848 L16.0009895,23.7541699 C16.0059895,24.2838763 16.4899869,24.8974866 17.3649823,25.4736939 C19.3469719,26.7615678 22.9149531,27.642053 26.9039322,27.8250241 L26.8129326,29.8447824 C22.6869543,29.6547351 19.0629734,28.7762717 16.7269857,27.4287552 C16.4169873,27.7269678 16.0009895,28.4851353 16.0009895,28.8955567 C16.0009895,30.6201351 20.7689644,33.0250425 28.5329236,33.0250425 C29.2709197,33.0250425 29.9979159,32.9997703 30.6949122,32.9502366 L30.8359115,34.9669623 C30.0919154,35.0205394 29.3169195,35.0468226 28.5329236,35.0468226 C23.7159489,35.0468226 18.6959753,34.0379543 15.9999895,32.1233286 L15.9999895,35.7928594 L16.0009895,35.7928594 C16.0059895,36.339751 16.4899869,36.9533612 17.3649823,37.5295685 C19.6329704,39.0044571 23.9139479,39.9233562 28.5329236,39.9233562 L28.8629219,39.9233562 L28.8629219,41.9451362 L28.5329236,41.9451362 C23.7549487,41.9451362 18.6729754,40.9372789 16.0009895,39.4017369 C15.6789912,39.6999495 16.0009895,40.4126269 16.0009895,40.9504204 C16.0009895,42.6749989 20.7689644,45.0799063 28.5329236,45.0799063 C36.2978828,45.0799063 41.0648577,42.6749989 41.0648577,40.9504204 C41.0648577,40.3408537 40.4658609,39.7757662 39.9728635,39.4118458 C39.5638656,39.658503 39.113868,39.8950512 38.6008707,40.1113817 L37.8328747,38.2442678 C38.3638719,38.0208611 38.8228695,37.7812802 39.1968675,37.5326012 C40.2978617,36.798695 41.0008581,35.7544456 41.0008581,35.3581767 L43.0008475,35.3581767 C43.0008475,36.2983045 42.3798508,37.3051509 41.583855,38.1330699 C42.7758487,39.1732757 43.0648472,40.2114598 43.0648472,40.9504204 L43.0648472,40.9504204 Z M17.1419835,48.3885494 C17.9329793,48.796949 18.8579745,49.1608694 19.893969,49.4691908 L20.457966,47.5292928 C19.5419709,47.2573634 18.7319751,46.9399439 18.0519787,46.5881542 L17.1419835,48.3885494 Z M19.893969,37.3385103 L20.457966,35.3996232 C19.5419709,35.1266829 18.7319751,34.8102743 18.0519787,34.4584846 L17.1419835,36.2578689 C17.9329793,36.6672793 18.8579745,37.0301889 19.893969,37.3385103 L19.893969,37.3385103 Z M17.1419835,24.1281992 L18.0519787,22.3278041 C18.7319751,22.6795938 19.5419709,22.9960024 20.457966,23.2689427 L19.893969,25.2088407 C18.8579745,24.9005192 17.9329793,24.5365988 17.1419835,24.1281992 L17.1419835,24.1281992 Z" id="dynamodb__Amazon-DynamoDB_Icon_48_Squid" fill="#FFFFFF"></path>
    </g>
</g><text x="720" y="468" text-anchor="middle" font-size="13" font-weight="700" fill="#16202E">Governed pipeline</text><text x="720" y="481" text-anchor="middle" font-size="9.5" fill="#5A6B7B">quota → invoke → ledger</text>
<g transform="translate(957.00,247.00) scale(0.7188)">
<g clip-path="url(#agentcore__clip0_211_72)">
<rect width="64" height="64" fill="#01A88D"/>
<path d="M53.3721 21.0727L50.8965 20.0801L49.9326 17.6343C49.7812 17.2519 49.4131 17.001 49.0019 17.001C48.5908 17.0015 48.2217 17.2529 48.0713 17.6357L47.0976 20.1157L44.6377 21.0703C44.2529 21.2197 43.999 21.5913 44 22.0049C44.0009 22.4184 44.2568 22.7891 44.6426 22.9365L47.1553 23.897L48.0625 26.3481C48.2051 26.7353 48.5723 26.9946 48.9853 27.001H49C49.4072 27.001 49.7744 26.7539 49.9277 26.375L50.9385 23.8686L53.3603 22.9341C53.7432 22.7856 53.9971 22.4184 54 22.0073C54.0029 21.5967 53.7539 21.2256 53.3721 21.0727ZM49.8135 22.1592C49.5557 22.2593 49.3496 22.4614 49.2461 22.7183L49.04 23.2285L48.873 22.7773C48.7734 22.5073 48.5615 22.2934 48.293 22.1904L47.7822 21.9951L48.2305 21.8213C48.4902 21.7202 48.6973 21.5146 48.7988 21.2544L49.0039 20.7319L49.1592 21.1265C49.25 21.437 49.4883 21.6855 49.793 21.792L50.2695 21.9834L49.8135 22.1592ZM51.2148 30.853L44.0078 27.9629L41.1973 20.8379C41.0078 20.3569 40.5508 20.0459 40.0342 20.0459C39.5166 20.0464 39.0586 20.3574 38.8701 20.8394L36.0312 28.0747L33.0011 29.2507L33.0019 13.998C33.0019 13.6191 32.788 13.2729 32.4492 13.1035L26.4472 10.1055C26.1513 9.95849 25.8027 9.96581 25.5146 10.126L16.5146 15.126C16.1972 15.3022 16 15.6367 16 16V23.3818L10.5527 26.1055C10.2138 26.2749 9.99997 26.6211 9.99997 27V37C9.99997 37.3511 10.1845 37.6768 10.4853 37.8574L15 40.5664V47C15 47.3657 15.2002 47.7026 15.5214 47.8779L26.5215 53.8779C26.6709 53.9594 26.8349 54 27 54C27.1787 54 27.3564 53.9521 27.5146 53.8574L32.5146 50.8574C32.8154 50.6767 33 50.351 33 50L33.0008 34.7649L36.2138 35.9927L38.8662 43.1616C39.0459 43.6494 39.499 43.9697 40.0185 43.9775C40.0253 43.9775 40.0322 43.978 40.039 43.978C40.5507 43.978 41.0039 43.6733 41.1982 43.1953L44.1396 35.9053L51.1992 33.1797C51.6816 32.9941 51.9961 32.5395 52 32.022C52.0029 31.5044 51.6953 31.0454 51.2148 30.853ZM26.9766 51.8481L23.7745 50.1015L27.5146 47.8574L26.4853 46.1426L21.7383 48.9908L17 46.4062V40.5662L21.5146 37.8574L20.4853 36.1426L16 38.8338L12 36.4336V32.6182L17.4472 29.8945L16.5527 28.1055L12 30.3818V27.6182L16.9563 25.14L21 27.5662V30.3818L17.5527 32.1055L18.4472 33.8945L22.0026 32.1169L25.5566 33.877L26.4433 32.085L23 30.3797V27.5664L27.5146 24.8574C27.8154 24.6768 28 24.3511 28 24V19H26V23.4336L22 25.8338L18 23.4338V16.5884L21 14.9217V21H23V13.8106L26.0244 12.1304L31.0019 14.6162L31.0007 36.4504L20.4629 43.1563L21.5371 44.8438L31.0006 38.8215L31 49.4336L26.9766 51.8481ZM43.0146 34.1953C42.7568 34.2954 42.5508 34.4976 42.4473 34.7544L40.0683 40.6494L37.9316 34.8735C37.832 34.6035 37.6201 34.3896 37.3516 34.2866L33.0009 32.6238L33.001 31.3955L37.1631 29.7803C37.4238 29.6792 37.6308 29.4736 37.7324 29.2134L40.0361 23.3438L42.2431 28.9385C42.3183 29.2905 42.5849 29.5747 42.9258 29.6841L48.7021 32L43.0146 34.1953Z" fill="white"/>
</g>
<defs>
<clipPath id="agentcore__clip0_211_72">
<rect width="64" height="64" fill="white"/>
</clipPath>
</defs>
</g><text x="980" y="308" text-anchor="middle" font-size="13" font-weight="700" fill="#16202E">agent() · session A</text><text x="980" y="321" text-anchor="middle" font-size="9.5" fill="#5A6B7B">published agent or raw kernel</text>
<g transform="translate(957.00,407.00) scale(0.7188)">
<g clip-path="url(#agentcore__clip0_211_72)">
<rect width="64" height="64" fill="#01A88D"/>
<path d="M53.3721 21.0727L50.8965 20.0801L49.9326 17.6343C49.7812 17.2519 49.4131 17.001 49.0019 17.001C48.5908 17.0015 48.2217 17.2529 48.0713 17.6357L47.0976 20.1157L44.6377 21.0703C44.2529 21.2197 43.999 21.5913 44 22.0049C44.0009 22.4184 44.2568 22.7891 44.6426 22.9365L47.1553 23.897L48.0625 26.3481C48.2051 26.7353 48.5723 26.9946 48.9853 27.001H49C49.4072 27.001 49.7744 26.7539 49.9277 26.375L50.9385 23.8686L53.3603 22.9341C53.7432 22.7856 53.9971 22.4184 54 22.0073C54.0029 21.5967 53.7539 21.2256 53.3721 21.0727ZM49.8135 22.1592C49.5557 22.2593 49.3496 22.4614 49.2461 22.7183L49.04 23.2285L48.873 22.7773C48.7734 22.5073 48.5615 22.2934 48.293 22.1904L47.7822 21.9951L48.2305 21.8213C48.4902 21.7202 48.6973 21.5146 48.7988 21.2544L49.0039 20.7319L49.1592 21.1265C49.25 21.437 49.4883 21.6855 49.793 21.792L50.2695 21.9834L49.8135 22.1592ZM51.2148 30.853L44.0078 27.9629L41.1973 20.8379C41.0078 20.3569 40.5508 20.0459 40.0342 20.0459C39.5166 20.0464 39.0586 20.3574 38.8701 20.8394L36.0312 28.0747L33.0011 29.2507L33.0019 13.998C33.0019 13.6191 32.788 13.2729 32.4492 13.1035L26.4472 10.1055C26.1513 9.95849 25.8027 9.96581 25.5146 10.126L16.5146 15.126C16.1972 15.3022 16 15.6367 16 16V23.3818L10.5527 26.1055C10.2138 26.2749 9.99997 26.6211 9.99997 27V37C9.99997 37.3511 10.1845 37.6768 10.4853 37.8574L15 40.5664V47C15 47.3657 15.2002 47.7026 15.5214 47.8779L26.5215 53.8779C26.6709 53.9594 26.8349 54 27 54C27.1787 54 27.3564 53.9521 27.5146 53.8574L32.5146 50.8574C32.8154 50.6767 33 50.351 33 50L33.0008 34.7649L36.2138 35.9927L38.8662 43.1616C39.0459 43.6494 39.499 43.9697 40.0185 43.9775C40.0253 43.9775 40.0322 43.978 40.039 43.978C40.5507 43.978 41.0039 43.6733 41.1982 43.1953L44.1396 35.9053L51.1992 33.1797C51.6816 32.9941 51.9961 32.5395 52 32.022C52.0029 31.5044 51.6953 31.0454 51.2148 30.853ZM26.9766 51.8481L23.7745 50.1015L27.5146 47.8574L26.4853 46.1426L21.7383 48.9908L17 46.4062V40.5662L21.5146 37.8574L20.4853 36.1426L16 38.8338L12 36.4336V32.6182L17.4472 29.8945L16.5527 28.1055L12 30.3818V27.6182L16.9563 25.14L21 27.5662V30.3818L17.5527 32.1055L18.4472 33.8945L22.0026 32.1169L25.5566 33.877L26.4433 32.085L23 30.3797V27.5664L27.5146 24.8574C27.8154 24.6768 28 24.3511 28 24V19H26V23.4336L22 25.8338L18 23.4338V16.5884L21 14.9217V21H23V13.8106L26.0244 12.1304L31.0019 14.6162L31.0007 36.4504L20.4629 43.1563L21.5371 44.8438L31.0006 38.8215L31 49.4336L26.9766 51.8481ZM43.0146 34.1953C42.7568 34.2954 42.5508 34.4976 42.4473 34.7544L40.0683 40.6494L37.9316 34.8735C37.832 34.6035 37.6201 34.3896 37.3516 34.2866L33.0009 32.6238L33.001 31.3955L37.1631 29.7803C37.4238 29.6792 37.6308 29.4736 37.7324 29.2134L40.0361 23.3438L42.2431 28.9385C42.3183 29.2905 42.5849 29.5747 42.9258 29.6841L48.7021 32L43.0146 34.1953Z" fill="white"/>
</g>
<defs>
<clipPath id="agentcore__clip0_211_72">
<rect width="64" height="64" fill="white"/>
</clipPath>
</defs>
</g><text x="980" y="468" text-anchor="middle" font-size="13" font-weight="700" fill="#16202E">agent() · session B</text><text x="980" y="481" text-anchor="middle" font-size="9.5" fill="#5A6B7B">V1 or V2 runtime</text>
<g transform="translate(957.00,567.00) scale(0.7188)">
<g clip-path="url(#agentcore__clip0_211_72)">
<rect width="64" height="64" fill="#01A88D"/>
<path d="M53.3721 21.0727L50.8965 20.0801L49.9326 17.6343C49.7812 17.2519 49.4131 17.001 49.0019 17.001C48.5908 17.0015 48.2217 17.2529 48.0713 17.6357L47.0976 20.1157L44.6377 21.0703C44.2529 21.2197 43.999 21.5913 44 22.0049C44.0009 22.4184 44.2568 22.7891 44.6426 22.9365L47.1553 23.897L48.0625 26.3481C48.2051 26.7353 48.5723 26.9946 48.9853 27.001H49C49.4072 27.001 49.7744 26.7539 49.9277 26.375L50.9385 23.8686L53.3603 22.9341C53.7432 22.7856 53.9971 22.4184 54 22.0073C54.0029 21.5967 53.7539 21.2256 53.3721 21.0727ZM49.8135 22.1592C49.5557 22.2593 49.3496 22.4614 49.2461 22.7183L49.04 23.2285L48.873 22.7773C48.7734 22.5073 48.5615 22.2934 48.293 22.1904L47.7822 21.9951L48.2305 21.8213C48.4902 21.7202 48.6973 21.5146 48.7988 21.2544L49.0039 20.7319L49.1592 21.1265C49.25 21.437 49.4883 21.6855 49.793 21.792L50.2695 21.9834L49.8135 22.1592ZM51.2148 30.853L44.0078 27.9629L41.1973 20.8379C41.0078 20.3569 40.5508 20.0459 40.0342 20.0459C39.5166 20.0464 39.0586 20.3574 38.8701 20.8394L36.0312 28.0747L33.0011 29.2507L33.0019 13.998C33.0019 13.6191 32.788 13.2729 32.4492 13.1035L26.4472 10.1055C26.1513 9.95849 25.8027 9.96581 25.5146 10.126L16.5146 15.126C16.1972 15.3022 16 15.6367 16 16V23.3818L10.5527 26.1055C10.2138 26.2749 9.99997 26.6211 9.99997 27V37C9.99997 37.3511 10.1845 37.6768 10.4853 37.8574L15 40.5664V47C15 47.3657 15.2002 47.7026 15.5214 47.8779L26.5215 53.8779C26.6709 53.9594 26.8349 54 27 54C27.1787 54 27.3564 53.9521 27.5146 53.8574L32.5146 50.8574C32.8154 50.6767 33 50.351 33 50L33.0008 34.7649L36.2138 35.9927L38.8662 43.1616C39.0459 43.6494 39.499 43.9697 40.0185 43.9775C40.0253 43.9775 40.0322 43.978 40.039 43.978C40.5507 43.978 41.0039 43.6733 41.1982 43.1953L44.1396 35.9053L51.1992 33.1797C51.6816 32.9941 51.9961 32.5395 52 32.022C52.0029 31.5044 51.6953 31.0454 51.2148 30.853ZM26.9766 51.8481L23.7745 50.1015L27.5146 47.8574L26.4853 46.1426L21.7383 48.9908L17 46.4062V40.5662L21.5146 37.8574L20.4853 36.1426L16 38.8338L12 36.4336V32.6182L17.4472 29.8945L16.5527 28.1055L12 30.3818V27.6182L16.9563 25.14L21 27.5662V30.3818L17.5527 32.1055L18.4472 33.8945L22.0026 32.1169L25.5566 33.877L26.4433 32.085L23 30.3797V27.5664L27.5146 24.8574C27.8154 24.6768 28 24.3511 28 24V19H26V23.4336L22 25.8338L18 23.4338V16.5884L21 14.9217V21H23V13.8106L26.0244 12.1304L31.0019 14.6162L31.0007 36.4504L20.4629 43.1563L21.5371 44.8438L31.0006 38.8215L31 49.4336L26.9766 51.8481ZM43.0146 34.1953C42.7568 34.2954 42.5508 34.4976 42.4473 34.7544L40.0683 40.6494L37.9316 34.8735C37.832 34.6035 37.6201 34.3896 37.3516 34.2866L33.0009 32.6238L33.001 31.3955L37.1631 29.7803C37.4238 29.6792 37.6308 29.4736 37.7324 29.2134L40.0361 23.3438L42.2431 28.9385C42.3183 29.2905 42.5849 29.5747 42.9258 29.6841L48.7021 32L43.0146 34.1953Z" fill="white"/>
</g>
<defs>
<clipPath id="agentcore__clip0_211_72">
<rect width="64" height="64" fill="white"/>
</clipPath>
</defs>
</g><text x="980" y="628" text-anchor="middle" font-size="13" font-weight="700" fill="#16202E">agent() · session C</text><text x="980" y="641" text-anchor="middle" font-size="9.5" fill="#5A6B7B">async task up to 8 h</text>
<rect x="1277.0" y="407.0" width="46" height="46" rx="8" fill="#4F46E5"/><path d="M1289 422 l9 8 l-9 8 M1299 422 l9 8 l-9 8" fill="none" stroke="#fff" stroke-width="2.4" stroke-linecap="round" stroke-linejoin="round"/><text x="1300" y="468" text-anchor="middle" font-size="13" font-weight="700" fill="#16202E">Model backend</text><text x="1300" y="481" text-anchor="middle" font-size="9.5" fill="#5A6B7B">gateway · llm-edge · Bedrock</text>
<g transform="translate(1277.00,647.00) scale(0.7188)">

    
    <g id="xray__Icon-Architecture/48/Arch_AWS-X-Ray_48" stroke="none" stroke-width="1" fill="none" fill-rule="evenodd">
        <g id="xray__Icon-Architecture-BG/48/Developer-Tools" fill="#C925D1">
            <rect id="xray__Rectangle" x="0" y="0" width="64" height="64"></rect>
        </g>
        <path d="M37.0574713,33.9632682 L35.0344828,33.9632682 L35.0344828,43.9826007 L33.0114943,43.9826007 L33.0114943,35.9671347 L30.9885057,35.9671347 L30.9885057,43.9826007 L28.9655172,43.9826007 L28.9655172,38.9729345 L26.9425287,38.9729345 L26.9425287,43.9826007 L24.9195402,43.9826007 L24.9195402,45.9864672 L39.0804598,45.9864672 L39.0804598,43.9826007 L37.0574713,43.9826007 L37.0574713,33.9632682 Z M43.1264368,39.9748677 C43.1264368,33.8981425 38.1347126,28.9536019 32,28.9536019 C25.8652874,28.9536019 20.8735632,33.8981425 20.8735632,39.9748677 C20.8735632,46.0515929 25.8652874,50.9961335 32,50.9961335 C38.1347126,50.9961335 43.1264368,46.0515929 43.1264368,39.9748677 L43.1264368,39.9748677 Z M45.1494253,39.9748677 C45.1494253,47.1567253 39.2503908,53 32,53 C24.7496092,53 18.8505747,47.1567253 18.8505747,39.9748677 C18.8505747,32.7930102 24.7496092,26.9497354 32,26.9497354 C39.2503908,26.9497354 45.1494253,32.7930102 45.1494253,39.9748677 L45.1494253,39.9748677 Z M54,30.7610895 C54,35.3559554 51.4510345,38.3447223 47.0075402,38.9599093 L46.7273563,36.9760815 C49.1225747,36.6444416 51.9770115,35.2968414 51.9770115,30.7610895 C51.9770115,27.3424933 49.9550345,25.2073735 45.9677241,24.4148443 C45.5155862,24.3246703 45.1828046,23.9439357 45.1575172,23.488056 C44.9693793,20.1967053 43.0546207,19.0284511 41.4706207,19.0284511 C40.4024828,19.0284511 39.4041379,19.5284158 38.7345287,20.4010997 C38.5109885,20.6916603 38.1488736,20.8389445 37.7806897,20.7848401 C37.4155402,20.7307357 37.110069,20.4842601 36.9816092,20.1426009 C36.3504368,18.4553453 35.4188506,16.9875131 34.285977,15.8954058 C32.8567356,14.5137399 28.9371954,11.5490194 23.3952184,13.8073769 C20.2110345,15.1018747 17.7166897,18.8270625 17.7166897,22.2887419 C17.7166897,22.6814998 17.739954,23.068246 17.7864828,23.4389613 C17.8502069,23.9419318 17.5234943,24.4128404 17.0258391,24.5350763 C15.1576092,24.9929598 12.0229885,26.4036818 12.0229885,30.6999716 C12.0229885,30.8562732 12.0310805,30.9985477 12.0381609,31.1458319 C12.1787586,33.6777172 14.3807816,35.9881753 17.394023,36.7827084 L16.872092,38.7194453 C13.0243678,37.703485 10.2063448,34.6425789 10.0202299,31.2750813 C10.0091034,31.0656772 10,30.8923428 10,30.6999716 C10,25.5520385 13.5149425,23.5682107 15.7068506,22.8317897 C15.6977471,22.6514418 15.6937011,22.4710938 15.6937011,22.2887419 C15.6937011,18.0034734 18.6735632,13.5609014 22.6254713,11.9538004 C27.2388966,10.0721698 32.1274483,11.0089774 35.6970115,14.4596355 C36.7165977,15.442532 37.5945747,16.6699002 38.2803678,18.0595817 C39.2008276,17.3912922 40.3074023,17.0245846 41.4706207,17.0245846 C43.8901149,17.0245846 46.5827126,18.7809736 47.1046437,22.6153722 C51.5592644,23.7345316 54,26.6040684 54,30.7610895 L54,30.7610895 Z" id="xray__AWS-X-Ray_Icon_48_Squid" fill="#FFFFFF"></path>
    </g>
</g><text x="1300" y="708" text-anchor="middle" font-size="13" font-weight="700" fill="#16202E">CloudWatch traces</text><text x="1300" y="721" text-anchor="middle" font-size="9.5" fill="#5A6B7B">run → phase → agent → TOOL</text>
<circle cx="285" cy="430" r="9" fill="#232F3E"/><text x="285" y="433" text-anchor="middle" font-size="10.5" font-weight="700" fill="#fff">1</text>
<circle cx="460" cy="610" r="9" fill="#232F3E"/><text x="460" y="613" text-anchor="middle" font-size="10.5" font-weight="700" fill="#fff">2</text>
<circle cx="590" cy="430" r="9" fill="#232F3E"/><text x="590" y="433" text-anchor="middle" font-size="10.5" font-weight="700" fill="#fff">3</text>
<circle cx="900" cy="430" r="9" fill="#232F3E"/><text x="900" y="433" text-anchor="middle" font-size="10.5" font-weight="700" fill="#fff">4</text>
<circle cx="1210" cy="430" r="9" fill="#232F3E"/><text x="1210" y="433" text-anchor="middle" font-size="10.5" font-weight="700" fill="#fff">5</text>
<text x="40" y="810" font-size="11" font-weight="700" fill="#16202E">Flows</text>
<circle cx="92" cy="806" r="5" fill="#1D4ED8"/><text x="102" y="810" font-size="10.5" fill="#5A6B7B">request →</text>
<circle cx="185" cy="806" r="5" fill="#15803D"/><text x="195" y="810" font-size="10.5" fill="#5A6B7B">scheduling</text>
<circle cx="285" cy="806" r="5" fill="#0369A1"/><text x="295" y="810" font-size="10.5" fill="#5A6B7B">script ↔ engine bridge</text>
<circle cx="469" cy="806" r="5" fill="#7E22CE"/><text x="479" y="810" font-size="10.5" fill="#5A6B7B">tracing</text>
<text x="40" y="832" font-size="10" fill="#5A6B7B">① trigger (portal, or EventBridge Scheduler → Lambda) ② engine starts the script in a sandboxed Node child ③ each agent() returns over the stdio bridge into quota → invoke → ledger ④ fan-out across runtime sessions ⑤ one trace per run</text>
</svg>